<svg width="100" height="101" viewBox="0 0 100 101" fill="none" xmlns="http://www.w3.org/2000/svg">
    <g clip-path="url(#clip0_241_4499)">
        <path
            d="M82.1416 100.885C60.7104 100.885 39.2792 100.885 17.848 100.885C16.6354 100.252 15.6945 99.4137 15.6945 97.9005C15.6919 93.9596 15.6736 90.0214 15.7023 86.0806C15.7154 84.4518 16.9438 83.2406 18.5537 83.1539C18.8726 83.1381 19.1914 83.1513 19.6122 83.1513C19.6122 81.6012 19.5599 80.13 19.6305 78.6666C19.6749 77.7182 19.3822 77.0062 18.7785 76.2837C14.2779 70.9085 9.80873 65.5095 5.34478 60.1054C1.74068 55.7442 -0.0182468 50.7157 0.00788883 45.0462C0.0261837 41.0397 0.0105024 37.0358 0.0105024 33.0293C0.0105024 26.3982 -0.0208603 19.7645 0.0235702 13.1334C0.0575465 8.14436 4.11118 4.24295 9.0508 4.34016C13.7813 4.43211 17.6102 8.32564 17.639 13.1834C17.6808 20.0456 17.652 26.9079 17.652 33.7676C17.652 34.1091 17.652 34.4533 17.652 34.8684C22.3669 31.8865 26.87 33.0871 30.2755 36.6811C35.3667 42.0512 40.7088 47.1795 45.8811 52.4733C47.2218 53.8447 48.3248 55.45 49.5374 56.9501C49.6916 57.1419 49.8302 57.3442 50.0419 57.6305C52.0569 54.047 55.0886 51.5039 57.8329 48.7112C62.0329 44.4367 66.2825 40.2095 70.5034 35.9587C72.7903 33.6546 75.5267 32.6694 78.71 33.342C79.9488 33.6047 81.1119 34.23 82.3428 34.7002C82.3428 34.385 82.3428 34.0277 82.3428 33.6704C82.3428 26.8422 82.3167 20.0115 82.3533 13.1834C82.382 8.21793 86.352 4.30338 91.2342 4.33491C96.1006 4.36643 99.9635 8.29937 99.9765 13.3252C100 23.7316 99.9347 34.1406 100.003 44.547C100.044 50.7341 98.0921 56.0962 94.1039 60.7963C89.6765 66.0166 85.3484 71.3236 80.9864 76.599C80.746 76.8906 80.4219 77.2453 80.4114 77.579C80.3539 79.4075 80.3853 81.2387 80.3853 83.0909C80.6022 83.1171 80.7251 83.1408 80.8505 83.1434C83.302 83.2301 84.3004 84.2757 84.303 86.7663C84.303 90.1476 84.2351 93.5314 84.3318 96.91C84.3762 98.749 83.8352 100.097 82.1416 100.885ZM74.4969 83.1145C74.4969 80.9759 74.5361 78.9425 74.4813 76.9117C74.4499 75.7215 74.8236 74.7679 75.5789 73.8615C80.4271 68.0501 85.2439 62.215 90.0764 56.3905C92.7788 53.1354 94.1091 49.3942 94.1012 45.1565C94.0882 38.5885 94.0986 32.0231 94.0986 25.4551C94.0986 21.4486 94.0934 17.4421 94.1012 13.4382C94.1039 12.0931 93.555 11.0737 92.3345 10.5115C90.3299 9.58933 88.226 11.0974 88.2234 13.4566C88.2129 21.1727 88.1946 28.8888 88.2286 36.605C88.2495 41.0476 86.7127 44.7914 83.5738 47.9072C80.2494 51.207 76.9641 54.5436 73.6606 57.8617C72.8974 58.6289 72.163 59.4223 71.3659 60.15C69.7403 61.6318 67.2234 61.0354 66.5648 59.0072C66.1492 57.7277 66.5334 56.6453 67.4795 55.6995C71.2796 51.9058 75.0693 48.0964 78.8485 44.2817C80.1893 42.9287 80.2389 41.1027 79.021 39.8969C77.7822 38.6726 76.0389 38.7566 74.6668 40.1333C69.0738 45.7477 63.4782 51.362 57.8982 56.9921C54.5764 60.3418 52.9351 64.3982 52.9377 69.1272C52.9403 73.4621 52.9377 77.797 52.9403 82.1293C52.9403 82.4472 52.969 82.7625 52.9847 83.1119C60.1616 83.1145 67.2704 83.1145 74.4969 83.1145ZM47.052 83.1066C47.052 78.2331 47.0859 73.4726 47.0415 68.7121C47.0049 64.506 45.6485 60.7228 42.7343 57.7094C36.9296 51.7062 30.9916 45.8317 25.0981 39.9152C24.3898 39.2059 23.4986 38.9011 22.4923 39.1087C21.3816 39.3373 20.5871 39.9914 20.2499 41.0817C19.8788 42.2824 20.195 43.3385 21.0889 44.2318C24.9047 48.0596 28.7178 51.8875 32.5206 55.7258C33.8587 57.0788 33.9423 58.91 32.7584 60.1133C31.5588 61.3349 29.7345 61.2745 28.3938 59.932C24.2748 55.8073 20.1637 51.672 16.0604 47.5315C13.9774 45.4298 12.6131 42.9208 12.0668 40.0046C11.8682 38.9484 11.7846 37.8555 11.782 36.7757C11.7585 29.0596 11.7637 21.3435 11.7767 13.6274C11.7794 12.6264 11.5703 11.7253 10.8123 11.0448C9.90805 10.2356 8.85217 9.98867 7.72311 10.4826C6.45031 11.0369 5.88578 12.0694 5.88578 13.4592C5.89101 24.0337 5.89624 34.6056 5.88578 45.1802C5.88056 49.4205 7.22131 53.1538 9.92373 56.4089C14.487 61.9024 18.998 67.4406 23.6292 72.8763C24.9674 74.4473 25.7018 76.0289 25.5188 78.1202C25.3751 79.7674 25.4901 81.4383 25.4901 83.1092C32.7349 83.1066 39.8438 83.1066 47.052 83.1066ZM47.0101 89.1308C38.4978 89.1308 30.0638 89.1308 21.6508 89.1308C21.6508 91.1144 21.6508 93.0296 21.6508 94.9238C30.1422 94.9238 38.5527 94.9238 47.0101 94.9238C47.0101 92.9823 47.0101 91.0907 47.0101 89.1308ZM78.3702 89.1282C69.8631 89.1282 61.4291 89.1282 53.0109 89.1282C53.0109 91.1091 53.0109 93.0243 53.0109 94.9238C61.4997 94.9238 69.9101 94.9238 78.3702 94.9238C78.3702 92.9849 78.3702 91.096 78.3702 89.1282Z"
            fill="#4A6594" />
        <path
            d="M61.3639 0C62.2107 0.223313 63.0732 0.396709 63.9017 0.677821C72.299 3.52309 75.2367 14.0556 69.5496 20.8863C69.215 21.2883 68.857 21.6719 68.4858 22.0423C63.1568 27.4045 57.8251 32.764 52.4909 38.1235C50.779 39.8443 49.2134 39.8417 47.5042 38.1235C42.0784 32.672 36.6213 27.2521 31.24 21.7586C24.4082 14.786 27.4059 3.09748 36.6501 0.507052C37.3035 0.323147 37.9673 0.170769 38.6259 0.00262721C39.6713 0.00262721 40.7168 0.00262721 41.7622 0.00262721C41.9739 0.0683075 42.1804 0.157633 42.3973 0.199668C44.8566 0.667312 47.0259 1.7182 48.8345 3.46529C49.203 3.82259 49.4722 4.28498 49.8146 4.73686C50.2902 4.28498 50.5516 4.05116 50.7973 3.79895C52.2661 2.30407 53.9937 1.22954 55.9852 0.604259C56.7222 0.373064 57.4801 0.199668 58.2276 0.00262721C59.273 0 60.3185 0 61.3639 0ZM49.9975 32.1991C50.1988 32.0205 50.3739 31.8812 50.5307 31.7236C55.1933 27.0366 59.8715 22.3655 64.5132 17.6575C67.2888 14.8411 67.3176 10.6533 64.6544 7.93944C61.9911 5.22815 57.8356 5.22553 54.9842 7.94994C54.0381 8.85371 53.1416 9.81001 52.206 10.7243C50.8312 12.0668 49.1533 12.0615 47.7812 10.7164C46.7985 9.75484 45.8655 8.74074 44.8566 7.8107C42.9252 6.02682 40.6671 5.45409 38.1476 6.23175C33.2498 7.74239 31.7653 13.8533 35.4217 17.5839C40.0921 22.3549 44.8305 27.0603 49.5401 31.7919C49.6708 31.9285 49.8198 32.0441 49.9975 32.1991Z"
            fill="#4A6594" />
    </g>
    <defs>
        <clipPath id="clip0_241_4499">
            <rect width="100" height="100.885" fill="white" />
        </clipPath>
    </defs>
</svg>