<svg width="100" height="119" viewBox="0 0 100 119" fill="none" xmlns="http://www.w3.org/2000/svg">
    <path
        d="M38.6643 84.5519C39.1559 84.5519 39.6413 84.5519 40.1266 84.5519C48.0862 84.5581 56.0436 84.5519 64.0032 84.5787C67.8102 84.591 70.8603 87.2689 71.4423 91.0347C71.9791 94.4962 69.8299 98.0358 66.3992 99.165C65.4799 99.4673 64.4577 99.5557 63.4807 99.5619C56.636 99.601 49.7891 99.5928 42.9444 99.601C42.5741 99.601 42.2019 99.5866 41.8317 99.6113C40.4701 99.6977 39.6063 100.51 39.6556 101.641C39.705 102.754 40.5174 103.472 41.8625 103.49C47.8003 103.573 53.738 103.638 59.6758 103.696C64.0505 103.739 67.368 106.952 67.3824 111.184C67.3967 115.393 64.069 118.7 59.7108 118.733C54.5155 118.77 49.3181 118.759 44.1229 118.749C42.3335 118.745 41.1879 117.986 40.8671 116.672C40.394 114.741 41.6795 113.196 43.8884 113.147C46.1549 113.095 48.4235 113.13 50.692 113.128C53.6208 113.126 56.5475 113.13 59.4763 113.116C60.881 113.11 61.7654 112.39 61.8086 111.261C61.8539 110.101 60.9427 109.259 59.4907 109.243C53.6352 109.179 47.7797 109.161 41.9242 109.099C38.3661 109.06 35.4887 107.083 34.4583 104.035C32.8047 99.1403 36.2353 94.1692 41.4121 94.0273C43.9665 93.9573 46.5251 94.0088 49.0816 94.0067C53.7833 94.0026 58.4829 94.0026 63.1846 93.9923C63.5939 93.9923 64.0134 93.9861 64.4083 93.8956C65.4305 93.6591 65.9653 92.968 65.918 91.9315C65.8686 90.8805 65.2063 90.3005 64.2047 90.1195C63.8448 90.0557 63.4643 90.0948 63.0941 90.0928C55.0523 90.0886 47.0105 90.0886 38.9708 90.0825C35.0075 90.0804 32.9507 88.0237 32.9425 84.0686C32.9425 83.7807 32.9219 83.4886 32.9446 83.2027C33.1749 80.3829 31.9738 78.3406 29.7278 76.6788C24.3906 72.7299 20.6124 67.5881 18.2493 61.3706C12.9388 47.3993 18.0559 30.8221 30.3654 22.2702C44.1393 12.7003 61.8477 14.1461 73.8816 25.8263C85.9895 37.5784 87.2339 57.7528 76.5409 70.7904C74.7022 73.0322 72.4645 74.9697 70.2844 76.905C68.6102 78.392 66.8867 78.3077 65.8254 76.9708C64.6675 75.5106 65.0583 73.9043 66.9566 72.4543C72.1087 68.5157 75.5455 63.4376 77.2916 57.181C81.9069 40.647 70.0911 23.4117 52.9832 21.7663C38.5676 20.378 25.8118 29.189 22.554 43.2817C19.907 54.7335 23.4816 64.3672 32.5394 71.827C35.2255 74.04 37.6339 76.3024 38.2632 79.8667C38.5245 81.3578 38.5306 82.8922 38.6643 84.5519Z"
        fill="#4A6594" />
    <path
        d="M93.1407 52.2264C91.7832 52.2264 90.4258 52.247 89.0704 52.2203C87.4641 52.1874 86.4008 51.2392 86.4152 49.9003C86.4275 48.619 87.4374 47.6502 88.984 47.6214C91.8203 47.57 94.6585 47.5639 97.4948 47.6235C99.0661 47.6564 100.012 48.6128 100.002 49.9353C99.9916 51.305 98.9797 52.1915 97.3343 52.2203C95.9358 52.245 94.5372 52.2264 93.1407 52.2264Z"
        fill="#4A6594" />
    <path
        d="M52.2264 6.81603C52.2264 8.17553 52.2573 9.53502 52.2182 10.8925C52.175 12.3877 51.3029 13.3359 50.0113 13.3852C48.7176 13.4346 47.6893 12.5522 47.6481 11.0755C47.5679 8.15496 47.5638 5.22824 47.6481 2.30769C47.6913 0.816569 48.7094 -0.0493121 50.0154 4.92388e-05C51.3112 0.0494106 52.175 0.991391 52.2161 2.49074C52.2573 3.93456 52.2264 5.37633 52.2264 6.81603Z"
        fill="#4A6594" />
    <path
        d="M6.6308 52.2264C5.31449 52.2264 3.99613 52.2449 2.67983 52.2223C1.02828 52.1935 0.0163713 51.3174 -8.24911e-05 49.9455C-0.0144796 48.6231 0.93367 47.6585 2.50089 47.6255C5.29804 47.5659 8.0993 47.5659 10.8964 47.6255C12.4637 47.6605 13.4098 48.6272 13.3913 49.9496C13.3727 51.2783 12.3876 52.1791 10.8286 52.2182C9.43 52.2532 8.03143 52.2264 6.6308 52.2264Z"
        fill="#4A6594" />
    <path
        d="M83.8649 13.5745C84.5148 14.1072 85.4547 14.5103 85.6789 15.1623C85.9257 15.8821 85.7797 17.0112 85.3396 17.6344C84.4696 18.8623 83.2828 19.866 82.2236 20.9581C81.2508 21.9638 80.3006 22.9943 79.2907 23.9589C78.176 25.0242 76.8062 25.051 75.8848 24.1069C74.9922 23.1917 74.9819 21.8631 75.9959 20.7895C77.9724 18.6937 79.99 16.6369 82.0385 14.6111C82.4457 14.2038 83.0669 14.0125 83.8649 13.5745Z"
        fill="#4A6594" />
    <path
        d="M24.7671 22.0831C24.7691 24.2179 22.9366 25.3162 21.4331 24.4709C21.0814 24.2735 20.7606 23.9937 20.4768 23.7037C18.6298 21.826 16.787 19.9461 14.9627 18.0457C13.7862 16.8199 13.7081 15.3987 14.722 14.4505C15.7031 13.5312 17.0646 13.6505 18.2185 14.8125C20.1024 16.7109 21.9823 18.6154 23.8107 20.5652C24.2879 21.0794 24.5758 21.7725 24.7671 22.0831Z"
        fill="#4A6594" />
</svg>