<svg width="100" height="119" viewBox="0 0 100 119" fill="none" xmlns="http://www.w3.org/2000/svg">
    <g clip-path="url(#clip0_248_1945)">
        <path
            d="M57.6564 0.30726C46.2805 1.97185 36.9699 10.4122 34.1656 21.6051C31.3683 32.7599 35.5401 44.8438 44.9095 51.402C47.952 53.5328 49.7548 55.6809 48.8949 59.4591C48.8949 60.281 48.9121 61.0995 48.8914 61.918C48.8292 64.3803 49.81 66.2383 51.9685 67.4954C52.2897 67.6819 52.521 68.2068 52.5901 68.6143C53.1254 71.726 55.3529 74.1952 58.4749 74.7271C60.1153 75.0034 61.8248 74.9377 63.5032 74.9343C67.4471 74.9308 70.2859 72.5514 71.132 68.7076C71.2426 68.2034 71.6293 67.6405 72.0541 67.3538C73.8361 66.152 74.81 64.5323 74.8584 62.3911C74.8964 60.6644 74.9827 58.9272 74.8411 57.2143C74.6581 54.9971 75.594 53.6641 77.4209 52.4553C85.2535 47.2716 89.6256 39.8776 90.3509 30.5428C91.7633 12.3946 75.7459 -2.33813 57.6564 0.30726ZM64.0938 70.759C62.6364 70.8522 61.1617 70.8626 59.7044 70.759C58.247 70.6554 57.2731 69.8093 56.7343 68.1585C60.0048 68.1585 63.1026 68.1585 66.2004 68.1619C66.4007 68.1619 66.6045 68.2206 66.8082 68.2483C66.5285 69.716 65.5753 70.6623 64.0938 70.759ZM69.0219 63.9832C64.2457 64.0281 59.4661 64.0281 54.6899 63.9797C53.4777 63.9659 53.084 63.3408 53.1496 61.8489H70.6071C70.728 63.2649 70.2756 63.9694 69.0219 63.9832ZM74.9689 49.1158C71.8089 51.1085 70.3895 53.7884 70.766 57.5942H55.6154L55.6085 57.5562H53.1427C53.1081 57.2419 53.0356 56.9173 53.0425 56.5927C53.1116 53.3153 51.6922 50.9462 48.8983 49.2159C44.1877 46.3081 40.9103 42.1639 38.9694 36.987C32.8844 20.7417 45.5484 3.37053 62.885 4.16484C73.5944 4.65524 82.7255 11.9491 85.4641 22.1956C88.2131 32.4906 84.024 43.4037 74.9689 49.1158Z"
            fill="#4A6594" />
        <path
            d="M13.4894 79.2132C15.5581 77.6315 17.6129 76.0809 19.647 74.5026C22.7483 72.0921 26.2571 70.873 30.1561 71.4083C32.4872 71.7294 34.7562 72.5168 37.0424 73.1316C43.3243 74.8272 49.5821 76.6024 55.8813 78.229C60.0601 79.3099 62.816 81.717 63.8762 85.9545C63.9038 86.0719 64.004 86.172 64.1145 86.3482C68.8631 83.6061 73.5978 80.8709 78.3361 78.1392C80.9504 76.63 83.5543 75.107 86.1825 73.622C90.8309 70.9938 96.2425 72.3545 98.7809 76.7647C101.323 81.1817 99.8031 86.5519 95.1754 89.2319C83.0536 96.2598 70.9007 103.236 58.7823 110.271C55.0697 112.426 51.1707 112.844 47.0507 111.89C42.1398 110.754 37.2185 109.646 32.3042 108.52C28.823 107.719 25.6458 108.413 22.6896 110.378C22.1059 110.765 21.8884 111.1 22.0403 111.828C22.5722 114.332 21.5948 115.876 19.1083 116.57C17.4057 117.046 15.6997 117.495 13.9902 117.937C11.2722 118.642 9.57657 117.654 8.84443 114.929C6.8552 107.522 4.87288 100.114 2.89056 92.7061C1.9892 89.3355 1.08092 85.9648 0.200276 82.5873C-0.445532 80.1215 0.504185 78.4534 2.95273 77.7455C4.48264 77.3034 6.02636 76.9028 7.57008 76.4953C10.882 75.6146 11.9837 76.105 13.4894 79.2132ZM20.69 106.651C26.447 103.422 29.9869 103.636 35.2051 104.914C39.5565 105.978 43.9425 106.9 48.3112 107.905C51.3538 108.606 54.1753 108.174 56.8932 106.582C63.4376 102.745 70.0269 98.9846 76.5955 95.1892C82.1211 91.9981 87.6502 88.8174 93.1655 85.6091C95.2376 84.4038 96.2011 82.3559 95.7452 80.3011C94.9889 76.8786 91.4214 75.4005 88.2338 77.2343C80.2355 81.8275 72.2441 86.4414 64.2699 91.0795C63.7519 91.3799 63.2856 91.9083 62.9956 92.4367C61.0167 96.0526 56.9968 98.4009 53.2187 97.5686C48.0487 96.429 42.9583 94.9371 37.847 93.5349C36.7005 93.2207 36.1997 92.0361 36.5451 90.9344C36.8628 89.9226 37.8781 89.3665 39.0143 89.6014C39.3528 89.6705 39.6809 89.7706 40.0159 89.8604C44.1325 90.9793 48.2421 92.1224 52.3656 93.1999C53.2256 93.4244 54.1684 93.5764 55.0352 93.4693C57.7635 93.1274 59.7354 90.9897 59.8874 88.3892C60.0566 85.5573 58.4542 83.2607 55.6637 82.494C47.6447 80.2942 39.6049 78.1772 31.5996 75.9255C28.1634 74.9585 25.1312 75.5628 22.3373 77.6764C19.9993 79.4446 17.7027 81.275 15.3336 83.0052C14.6394 83.5094 14.5807 83.9791 14.7879 84.7285C16.0795 89.4218 17.3332 94.1255 18.5972 98.8257C19.2913 101.388 19.9717 103.961 20.69 106.651ZM12.8747 113.942C14.6429 113.469 16.2488 113.04 17.9824 112.578C15.0815 101.758 12.2151 91.0588 9.33137 80.3045C7.53554 80.7949 5.92966 81.2301 4.23398 81.6928C7.12112 92.4713 9.97027 103.108 12.8747 113.942Z"
            fill="#4A6594" />
    </g>
    <defs>
        <clipPath id="clip0_248_1945">
            <rect width="100" height="118.159" fill="white" />
        </clipPath>
    </defs>
</svg>