<svg width="120" height="76" viewBox="0 0 120 76" fill="none" xmlns="http://www.w3.org/2000/svg">
    <g clip-path="url(#clip0_248_1942)">
        <path
            d="M0 43.2967C0.69375 40.4686 1.41875 37.6498 2.07188 34.8123C4.3 25.1248 6.49375 15.428 8.71562 5.73733C9.6875 1.50608 13.0781 -0.68767 17.2844 0.202956C19.5344 0.677956 21.7719 1.21858 24.0063 1.76233C26.5781 2.38733 28.2531 4.01858 29.0063 6.52171C29.2219 7.24358 29.5312 7.40921 30.2188 7.40921C37.325 7.38733 44.4312 7.41233 51.5406 7.36546C52.0844 7.36233 52.7344 7.04046 53.15 6.66233C56.0563 4.03733 59.3969 2.39358 63.3469 2.81233C65.4313 3.03108 67.5813 3.66233 69.4594 4.59671C73.2625 6.48421 76.9906 8.55921 80.5781 10.8248C84.15 13.078 87.4813 12.7686 90.8906 10.6467C90.8906 9.40296 90.6875 8.09046 90.9313 6.86858C91.4625 4.23733 93.175 2.52171 95.7625 1.83108C98.1719 1.18733 100.613 0.646706 103.056 0.156081C106.847 -0.603295 110.231 1.50608 111.131 5.29358C112.812 12.3467 114.394 19.4248 116.016 26.4936C117.256 31.8905 118.497 37.2842 119.741 42.678C119.791 42.8936 119.906 43.0936 119.991 43.2998C119.991 44.1592 119.991 45.0186 119.991 45.878C119.669 46.6186 119.409 47.3998 119.006 48.0936C118.044 49.7623 116.581 50.8186 114.706 51.2686C112.431 51.8123 110.156 52.353 107.872 52.8498C105.106 53.4498 103.353 52.828 100.572 50.3186C99 51.0155 97.4031 51.7217 95.8344 52.4186C95.8656 58.9748 94.6562 60.653 88.4 62.803C88.5406 70.1967 80.8438 74.2311 74.8438 69.9842C73.3656 73.3248 70.8344 75.2123 67.1531 75.3373C63.4219 75.4623 61.1406 72.9467 58.7781 70.4061C58.6469 70.6373 58.5781 70.7498 58.5187 70.8686C55.7625 76.4467 49.3531 77.5623 44.9031 73.1936C38.2188 66.628 31.5688 60.0342 24.9187 53.4311C23.3781 51.8998 21.9125 50.2967 20.3687 48.6811C19.7344 49.5655 19.3469 50.253 18.8219 50.8092C16.9469 52.7998 14.6313 53.4061 11.9875 52.8248C10.35 52.4655 8.73438 51.9842 7.08437 51.7248C3.54688 51.1717 1.03125 49.4436 0 45.8748C0 45.0155 0 44.1561 0 43.2967ZM28.6781 12.1123C28.5719 12.4842 28.4719 12.7748 28.4031 13.0748C26.1938 22.7311 24.0094 32.3905 21.7531 42.0342C21.5031 43.103 21.7375 43.7405 22.4906 44.4655C25.525 47.3936 28.5031 50.3842 31.5 53.3498C37.0281 58.8155 42.5594 64.2717 48.075 69.7467C49.0406 70.7061 50.1125 71.3436 51.5125 71.1061C52.8438 70.878 53.825 70.1217 54.2656 68.8373C54.7469 67.4311 54.4594 66.1311 53.3969 65.0592C51.2812 62.9248 49.1406 60.8092 47.0281 58.6717C45.8469 57.478 45.7687 56.028 46.7875 55.0561C47.8063 54.0842 49.1375 54.1811 50.3188 55.3436C51.9031 56.9061 53.4688 58.4873 55.0438 60.0623C58.1937 63.2092 61.3313 66.3686 64.4938 69.4998C65.7281 70.7186 67.275 70.9686 68.6813 70.2623C70.0594 69.5717 70.8906 68.1342 70.5156 66.5686C70.3125 65.7155 69.7719 64.8405 69.15 64.2061C65.1062 60.0748 60.9969 56.0092 56.9125 51.9217C56.6375 51.6467 56.35 51.3717 56.1281 51.0561C55.5 50.1592 55.6031 48.9311 56.3469 48.1436C57.0906 47.3561 58.3062 47.1717 59.2375 47.7623C59.6281 48.0092 59.9656 48.3498 60.2938 48.678C65.8469 54.2248 71.3969 59.778 76.95 65.328C77.2812 65.6592 77.6062 66.003 77.9781 66.2842C79.9938 67.8092 82.825 66.8248 83.4937 64.3842C83.9312 62.7842 83.2344 61.5998 82.15 60.5155C76.8125 55.1936 71.4844 49.8623 66.1562 44.5311C65.7969 44.1717 65.425 43.8217 65.1125 43.4248C64.3969 42.5155 64.4531 41.2405 65.2031 40.4186C65.9906 39.553 67.3063 39.4092 68.2875 40.1123C68.6344 40.3592 68.9313 40.678 69.2344 40.9811C74.4563 46.1998 79.6781 51.4155 84.8875 56.6436C85.8219 57.5811 86.8719 58.1717 88.2281 57.9561C89.6156 57.7342 90.6156 56.9655 91.0469 55.6217C91.5344 54.0998 91.0781 52.8123 89.95 51.6873C82.9531 44.7123 75.975 37.7155 68.9813 30.7342C65.8844 27.6436 62.3625 27.3561 58.7188 29.7655C56.7687 31.053 54.8 32.3436 52.725 33.4092C45.7062 37.0123 39.3719 35.8436 34.5844 30.1873C33.4781 28.878 33.4344 27.6342 34.65 26.5811C39.25 22.5967 43.025 17.853 46.975 13.2717C47.2594 12.9405 47.5187 12.5905 47.8906 12.1186C41.3625 12.1123 35.0781 12.1123 28.6781 12.1123ZM39.6531 28.6155C41.8312 30.578 44.3469 31.2342 47.2156 30.4998C50.5312 29.6498 53.3125 27.7592 56.1031 25.8998C61.6469 22.203 67.6375 22.778 72.3719 27.4811C74.2 29.2967 76.0187 31.1217 77.8406 32.9436C82.7531 37.8592 87.6625 42.778 92.5938 47.6748C92.875 47.953 93.4438 48.2842 93.7156 48.178C95.5188 47.4686 97.275 46.6436 99.0844 45.8405C96.7469 35.6342 94.4344 25.5405 92.1281 15.478C91.9719 15.4686 91.9312 15.4561 91.9 15.4686C91.7187 15.5342 91.5312 15.5905 91.3562 15.678C86.9219 17.878 82.6719 17.5405 78.4469 14.9842C74.8812 12.8248 71.2344 10.7842 67.5312 8.87171C66.1125 8.13733 64.4656 7.65296 62.875 7.49046C59.875 7.18108 57.5062 8.74358 55.5906 10.8436C50.2594 16.6873 45.0156 22.6217 39.6531 28.6155ZM24.5969 8.73108C24.6469 7.42796 24.0094 6.57483 22.8125 6.28108C20.8031 5.79046 18.7875 5.33733 16.7719 4.88421C14.5156 4.37796 13.725 4.87483 13.2031 7.16233C10.4094 19.3655 7.62187 31.5686 4.8375 43.7748C4.4625 45.4248 5.075 46.4123 6.71875 46.7998C8.57812 47.2373 10.4469 47.6405 12.3094 48.0717C14.8406 48.6592 15.5781 48.1842 16.1656 45.6217C18.3969 35.8498 20.6375 26.0811 22.875 16.3123C23.4594 13.728 24.0469 11.1436 24.5969 8.73108ZM106.578 48.3467C108.844 47.8092 111.403 47.2623 113.919 46.5748C115.05 46.2655 115.488 45.1748 115.206 43.9123C114.628 41.3248 114.025 38.7405 113.431 36.1561C111.181 26.3498 108.934 16.5436 106.675 6.73733C106.269 4.98108 105.359 4.42796 103.6 4.81858C101.544 5.27483 99.4906 5.74046 97.4406 6.22796C95.7 6.64046 95.1437 7.56233 95.5437 9.32171C96.8156 14.9123 98.0906 20.4998 99.3719 26.0873C100.922 32.853 102.472 39.6186 104.038 46.3811C104.344 47.703 105.162 48.3842 106.578 48.3467Z"
            fill="#4A6594" />
    </g>
    <defs>
        <clipPath id="clip0_248_1942">
            <rect width="120" height="75.8688" fill="white" />
        </clipPath>
    </defs>
</svg>