<svg width="100" height="101" viewBox="0 0 100 101" fill="none" xmlns="http://www.w3.org/2000/svg">
    <g clip-path="url(#clip0_241_4525)">
        <path
            d="M99.9999 90.0522C99.9999 90.8334 99.9999 91.6147 99.9999 92.3959C99.9244 92.6746 99.8437 92.9532 99.7708 93.2345C98.9505 96.3152 97.0624 98.4376 94.0598 99.5339C93.5156 99.7319 92.9426 99.8569 92.3828 100.016C91.6015 100.016 90.8203 100.016 90.039 100.016C87.3046 99.5313 85.3176 97.8829 83.4713 95.9376C81.3671 93.7214 79.164 91.6016 76.9999 89.4428C74.2161 86.6615 73.4817 83.4168 74.7551 79.6954C74.8385 79.4506 74.8176 79.0261 74.6588 78.8595C73.2656 77.4089 71.8307 75.9975 70.427 74.5912C69.1874 75.0626 68.677 75.7839 68.7057 77.1641C68.8072 81.8751 68.7708 86.5912 68.7343 91.3048C68.7057 95.0313 66.3697 98.2631 62.8932 99.4975C62.3176 99.7032 61.7187 99.8438 61.1301 100.016C43.2916 100.016 25.4531 100.016 7.61452 100.016C7.49734 99.9636 7.38275 99.8933 7.26036 99.8647C2.74734 98.8855 -5.88479e-05 95.5183 -5.88479e-05 90.9011C-0.00526718 65.711 -0.00526718 40.5209 0.0103578 15.3308C0.0103578 14.4949 0.104108 13.6329 0.312441 12.8256C1.30202 8.98707 4.69525 6.32822 8.664 6.27613C11.6848 6.23707 14.7083 6.26832 17.7317 6.26832C17.8124 5.9428 17.8801 5.6928 17.9374 5.43759C18.6328 2.29176 21.2812 0.0443612 24.4739 0.0261321C31.0807 -0.0103263 37.6874 -0.00772208 44.2942 0.0261321C47.289 0.0417571 49.8984 2.10947 50.7109 4.97926C50.8255 5.3829 50.901 5.79697 51.0078 6.26311C51.4531 6.26311 51.8749 6.27874 52.2942 6.26051C66.9479 5.59644 69.3697 8.04436 68.7812 22.7683C68.5937 27.448 68.763 32.1407 68.7395 36.8256C68.7369 37.4688 68.901 37.8777 69.4557 38.2631C79.7343 45.3933 82.2135 59.3204 75.0572 69.5938C74.8801 69.849 74.7083 70.1095 74.4973 70.4194C75.9583 71.8595 77.3333 73.2475 78.7578 74.5808C78.9635 74.7735 79.4557 74.836 79.7421 74.7397C83.3541 73.5339 86.5442 74.1954 89.2734 76.8647C91.4817 79.0287 93.6067 81.2787 95.8489 83.4063C97.8176 85.2761 99.5078 87.2787 99.9999 90.0522ZM39.927 41.4194C39.6536 41.4194 39.302 41.4194 38.9531 41.4194C30.9791 41.4194 23.0051 41.4115 15.0312 41.4272C13.6692 41.4298 12.6041 40.9636 12.0051 39.7058C11.039 37.6772 12.539 35.5626 14.9453 35.5626C26.0442 35.5574 37.1432 35.5626 48.2395 35.5496C48.7812 35.5496 49.3385 35.4532 49.8567 35.297C52.7213 34.4272 55.6328 34.0079 58.6197 34.3517C60.026 34.5131 61.4218 34.7631 62.8541 34.9767C62.8671 34.8386 62.888 34.711 62.888 34.5834C62.8906 28.1069 62.901 21.6303 62.8828 15.1537C62.8775 13.3386 61.6223 12.1381 59.7708 12.1251C57.6223 12.1095 55.4739 12.1225 53.3255 12.1225C52.5572 12.1225 51.7916 12.1225 50.9739 12.1225C50.9739 13.0704 50.9765 13.8803 50.9739 14.6902C50.9609 16.7892 49.7994 17.9793 47.7265 17.9793C38.8072 17.9845 29.8906 17.9845 20.9713 17.9793C18.9635 17.9767 17.7864 16.7683 17.7734 14.7397C17.7682 13.8777 17.7734 13.0131 17.7734 12.1225C14.8203 12.1225 12.0208 12.1199 9.2239 12.1225C7.00775 12.1251 5.86192 13.2735 5.86192 15.4923C5.85932 40.586 5.85932 65.6798 5.86192 90.7761C5.86192 92.9975 7.01036 94.1511 9.21869 94.1511C25.9817 94.1537 42.7421 94.1537 59.5051 94.1511C61.7291 94.1511 62.888 93.0027 62.8906 90.7996C62.8958 86.9584 62.8932 83.1173 62.8906 79.2787C62.8906 78.974 62.8567 78.6694 62.8385 78.3282C62.6171 78.3699 62.4895 78.3855 62.3645 78.4168C56.9817 79.7657 51.7916 79.2579 46.7812 76.8543C46.3906 76.6668 45.9114 76.5912 45.4739 76.5886C41.7968 76.5678 38.1171 76.5782 34.44 76.5782C27.9296 76.5782 21.4218 76.573 14.9114 76.5808C13.5807 76.5834 12.5624 76.0626 11.9947 74.8464C11.0598 72.849 12.5364 70.7267 14.8671 70.7214C22.5494 70.711 30.2291 70.7162 37.9114 70.7162C38.2551 70.7162 38.5963 70.7162 38.927 70.7162C37.9947 69.0704 37.0078 67.5444 36.2499 65.9115C35.8489 65.047 35.3958 64.8334 34.5104 64.8386C27.9999 64.8751 21.4921 64.8516 14.9817 64.8647C13.6145 64.8673 12.5598 64.3621 11.9817 63.1043C11.0598 61.1043 12.552 59.0079 14.8906 59.0027C20.9765 58.9923 27.0624 59.0001 33.151 59.0001C33.5312 59.0001 33.9114 59.0001 34.3281 59.0001C34.3281 57.0001 34.3281 55.1225 34.3281 53.1407C34.065 53.1407 33.7135 53.1407 33.3645 53.1407C27.1796 53.1407 20.9973 53.1459 14.8124 53.1355C13.302 53.1329 12.2213 52.3178 11.8307 50.948C11.4895 49.7553 11.9869 48.3438 13.1145 47.7579C13.69 47.4584 14.4088 47.3022 15.065 47.2996C21.8671 47.2683 28.6692 47.2865 35.4713 47.2605C35.8203 47.2579 36.315 47.0808 36.4921 46.8178C37.6588 45.0652 38.7604 43.2709 39.927 41.4194ZM56.6666 73.2787C65.8463 73.2787 73.2473 65.9037 73.2656 56.7345C73.2864 47.5418 65.8203 40.0626 56.6484 40.0834C47.5312 40.1043 40.0676 47.586 40.0676 56.7032C40.0729 65.8308 47.5286 73.2787 56.6666 73.2787ZM45.0104 12.0756C45.0546 11.9662 45.0989 11.9089 45.0989 11.8517C45.1067 10.3569 45.1171 8.86207 45.1145 7.36728C45.1119 6.14592 44.8463 5.87769 43.6328 5.87509C40.0572 5.86988 36.4817 5.87249 32.9062 5.87249C30.2734 5.87249 27.6406 5.8803 25.0078 5.86728C24.3203 5.86467 23.69 6.0079 23.664 6.79176C23.6067 8.53655 23.6458 10.2839 23.6458 12.0756C30.8072 12.0756 37.8828 12.0756 45.0104 12.0756ZM83.164 79.8569C81.8411 80.0027 80.7968 80.6251 80.2916 81.6902C79.7578 82.8178 79.9791 84.1199 80.9505 85.099C83.6301 87.8048 86.3202 90.5001 89.026 93.1772C90.3176 94.4558 92.1275 94.474 93.2994 93.2787C94.4713 92.086 94.4244 90.31 93.1328 89.0027C90.4765 86.3204 87.8203 83.6381 85.1093 81.0105C84.5833 80.5001 83.8203 80.2345 83.164 79.8569Z"
            fill="#4A6594" />
        <path
            d="M34.3723 23.8412C40.8775 23.8412 47.3827 23.8334 53.8853 23.8464C56.1717 23.8517 57.6457 25.8933 56.7941 27.8803C56.2681 29.1095 55.2759 29.7006 53.94 29.7006C50.5259 29.7032 47.1092 29.7032 43.6952 29.7032C34.1014 29.7032 24.5077 29.7084 14.9113 29.7006C12.565 29.698 11.065 27.6199 11.9686 25.6199C12.5363 24.3621 13.5806 23.836 14.953 23.8386C21.4269 23.849 27.8983 23.8412 34.3723 23.8412Z"
            fill="#4A6594" />
        <path
            d="M34.3618 82.435C40.867 82.435 47.3722 82.4272 53.8748 82.4402C56.1639 82.4454 57.6405 84.4767 56.7967 86.4662C56.2733 87.698 55.2837 88.2918 53.9478 88.2944C51.0545 88.2996 48.1587 88.297 45.2655 88.297C35.1509 88.297 25.0363 88.3022 14.9217 88.2944C12.5728 88.2918 11.0675 86.224 11.966 84.2214C12.5311 82.9636 13.5728 82.4298 14.9452 82.4324C21.4191 82.4402 27.8905 82.435 34.3618 82.435Z"
            fill="#4A6594" />
        <path
            d="M53.8699 58.1538C56.9219 55.0939 59.823 52.1955 62.711 49.2866C63.5261 48.4663 64.4766 48.06 65.6225 48.3283C67.8725 48.8543 68.6381 51.5418 67.0105 53.2501C65.6199 54.7111 64.1667 56.1121 62.7396 57.5392C60.599 59.6798 58.4636 61.8231 56.3178 63.9585C54.6954 65.5757 53.1277 65.5626 51.487 63.9246C49.8985 62.3387 48.31 60.7501 46.724 59.1616C45.2266 57.6616 45.0756 55.8595 46.3412 54.6121C47.6355 53.3361 49.336 53.4949 50.8855 55.0574C51.8725 56.0496 52.8256 57.0679 53.8699 58.1538Z"
            fill="#4A6594" />
    </g>
    <defs>
        <clipPath id="clip0_241_4525">
            <rect width="100" height="100.013" fill="white" />
        </clipPath>
    </defs>
</svg>