<svg width="28" height="28" viewBox="0 0 28 28" fill="none" xmlns="http://www.w3.org/2000/svg">
    <path
        d="M15.5469 4.54653C15.897 4.19659 16.3717 4 16.8667 4C17.3616 4 17.8363 4.19659 18.1864 4.54653L26.5864 12.9465C26.9363 13.2966 27.1329 13.7713 27.1329 14.2663C27.1329 14.7612 26.9363 15.2359 26.5864 15.586L18.1864 23.986C17.8343 24.326 17.3628 24.5142 16.8734 24.5099C16.384 24.5057 15.9158 24.3094 15.5697 23.9633C15.2236 23.6172 15.0273 23.149 15.023 22.6595C15.0188 22.1701 15.2069 21.6986 15.5469 21.3465L20.6 16.1329H2.86667C2.3716 16.1329 1.8968 15.9363 1.54673 15.5862C1.19667 15.2361 1 14.7613 1 14.2663C1 13.7712 1.19667 13.2964 1.54673 12.9463C1.8968 12.5963 2.3716 12.3996 2.86667 12.3996H20.6L15.5469 7.186C15.197 6.83595 15.0004 6.36124 15.0004 5.86627C15.0004 5.37129 15.197 4.89659 15.5469 4.54653Z"
        fill="#4A6594" />
</svg>