<svg width="40" height="40" viewBox="0 0 40 40" fill="none" xmlns="http://www.w3.org/2000/svg">
    <path
        d="M37.6667 40C38.3333 40 38.8889 39.7778 39.3333 39.3333C39.7778 38.8889 40 38.3333 40 37.6667V28.6667C40 28.1481 39.8333 27.6941 39.5 27.3044C39.1667 26.9148 38.7407 26.6652 38.2222 26.5556L30.5556 25C30.037 24.9259 29.5089 24.9726 28.9711 25.14C28.4333 25.3074 27.9985 25.557 27.6667 25.8889L22.4444 31.1111C19.6296 29.4074 17.0556 27.3889 14.7222 25.0556C12.3889 22.7222 10.4444 20.2222 8.88889 17.5556L14.2222 12.1111C14.5556 11.7778 14.7689 11.3978 14.8622 10.9711C14.9556 10.5444 14.9644 10.0726 14.8889 9.55556L13.4444 1.77778C13.3704 1.25926 13.1296 0.833333 12.7222 0.5C12.3148 0.166666 11.8519 0 11.3333 0H2.33333C1.66666 0 1.11111 0.222222 0.666664 0.666667C0.222218 1.11111 0 1.66667 0 2.33333C0 7.11111 1.06518 11.7689 3.19555 16.3067C5.32592 20.8444 8.14074 24.863 11.64 28.3622C15.1393 31.8615 19.1578 34.6763 23.6956 36.8067C28.2333 38.937 32.8904 40.0015 37.6667 40Z"
        fill="#4A6594" />
</svg>