<svg width="56" height="56" viewBox="0 0 56 56" fill="none" xmlns="http://www.w3.org/2000/svg">
    <path
        d="M0.00399865 1.99957C0.00399865 1.46925 0.214657 0.960653 0.589631 0.58566C0.964604 0.210668 1.47318 0 2.00347 0H3.75501C6.66224 0 8.3338 1.89159 9.30154 3.77919C9.96136 5.07091 10.4372 6.64658 10.8331 8.01428H52.0022C52.6201 8.01447 53.2296 8.15784 53.7828 8.43317C54.336 8.70849 54.8178 9.10826 55.1906 9.60112C55.5633 10.094 55.8167 10.6665 55.931 11.2738C56.0453 11.8811 56.0173 12.5066 55.8492 13.1012L49.8668 34.1967C49.3909 35.8703 48.3823 37.3432 46.9938 38.3918C45.6053 39.4404 43.9128 40.0076 42.1728 40.0074H21.8622C20.1078 40.008 18.4018 39.4317 17.0072 38.3672C15.6125 37.3027 14.6066 35.8092 14.1443 34.1167L11.5769 24.6987C11.5622 24.6565 11.5489 24.6138 11.5369 24.5707L7.41404 10.5857L7.01414 9.23802C6.61425 7.85432 6.26234 6.63058 5.73448 5.6028C5.09865 4.36306 4.51481 4.00314 3.75101 4.00314H1.99947C1.46918 4.00314 0.960604 3.79247 0.585631 3.41748C0.210657 3.04249 0 2.53389 0 2.00357L0.00399865 1.99957ZM15.3919 23.491L18.0032 33.0729C18.2348 33.9188 18.7379 34.6651 19.4352 35.197C20.1325 35.7288 20.9853 36.0167 21.8622 36.0163H42.1768C43.0464 36.0154 43.8919 35.7311 44.5854 35.2065C45.2789 34.6818 45.7824 33.9455 46.0198 33.1089L52.0022 12.0134H12.0128L15.3919 23.491ZM28.0086 50.0013C28.0086 51.5922 27.3766 53.118 26.2517 54.243C25.1268 55.368 23.6011 56 22.0102 56C20.4193 56 18.8936 55.368 17.7687 54.243C16.6437 53.118 16.0118 51.5922 16.0118 50.0013C16.0118 48.4103 16.6437 46.8845 17.7687 45.7596C18.8936 44.6346 20.4193 44.0026 22.0102 44.0026C23.6011 44.0026 25.1268 44.6346 26.2517 45.7596C27.3766 46.8845 28.0086 48.4103 28.0086 50.0013ZM24.0096 50.0013C24.0096 49.471 23.799 48.9624 23.424 48.5874C23.049 48.2124 22.5405 48.0017 22.0102 48.0017C21.4799 48.0017 20.9713 48.2124 20.5963 48.5874C20.2214 48.9624 20.0107 49.471 20.0107 50.0013C20.0107 50.5316 20.2214 51.0402 20.5963 51.4152C20.9713 51.7902 21.4799 52.0009 22.0102 52.0009C22.5405 52.0009 23.049 51.7902 23.424 51.4152C23.799 51.0402 24.0096 50.5316 24.0096 50.0013ZM48.0033 50.0013C48.0033 51.5922 47.3713 53.118 46.2464 54.243C45.1215 55.368 43.5958 56 42.0049 56C40.414 56 38.8883 55.368 37.7634 54.243C36.6384 53.118 36.0065 51.5922 36.0065 50.0013C36.0065 48.4103 36.6384 46.8845 37.7634 45.7596C38.8883 44.6346 40.414 44.0026 42.0049 44.0026C43.5958 44.0026 45.1215 44.6346 46.2464 45.7596C47.3713 46.8845 48.0033 48.4103 48.0033 50.0013ZM44.0044 50.0013C44.0044 49.471 43.7937 48.9624 43.4187 48.5874C43.0438 48.2124 42.5352 48.0017 42.0049 48.0017C41.4746 48.0017 40.966 48.2124 40.591 48.5874C40.2161 48.9624 40.0054 49.471 40.0054 50.0013C40.0054 50.5316 40.2161 51.0402 40.591 51.4152C40.966 51.7902 41.4746 52.0009 42.0049 52.0009C42.5352 52.0009 43.0438 51.7902 43.4187 51.4152C43.7937 51.0402 44.0044 50.5316 44.0044 50.0013Z"
        fill="#4A6696" />
</svg>