<svg width="24" height="24" viewBox="0 0 24 24" fill="none" xmlns="http://www.w3.org/2000/svg">
<path d="M21.9375 23.25C22.3125 23.25 22.625 23.125 22.875 22.875C23.125 22.625 23.25 22.3125 23.25 21.9375V16.875C23.25 16.5833 23.1563 16.3279 22.9688 16.1087C22.7813 15.8896 22.5417 15.7492 22.25 15.6875L17.9375 14.8125C17.6458 14.7708 17.3488 14.7971 17.0463 14.8912C16.7438 14.9854 16.4992 15.1258 16.3125 15.3125L13.375 18.25C11.7917 17.2917 10.3438 16.1562 9.03125 14.8438C7.71875 13.5312 6.625 12.125 5.75 10.625L8.75 7.5625C8.9375 7.375 9.0575 7.16125 9.11 6.92125C9.1625 6.68125 9.1675 6.41583 9.125 6.125L8.3125 1.75C8.27083 1.45833 8.13542 1.21875 7.90625 1.03125C7.67708 0.84375 7.41667 0.75 7.125 0.75H2.0625C1.6875 0.75 1.375 0.875 1.125 1.125C0.874998 1.375 0.75 1.6875 0.75 2.0625C0.75 4.75 1.34917 7.37 2.5475 9.9225C3.74583 12.475 5.32917 14.7354 7.2975 16.7037C9.26583 18.6721 11.5262 20.2554 14.0788 21.4538C16.6313 22.6521 19.2508 23.2508 21.9375 23.25Z" fill="#4A6594"/>
</svg>
