<svg width="31" height="31" viewBox="0 0 31 31" fill="none" xmlns="http://www.w3.org/2000/svg">
    <path
        d="M15.6292 23.9604L15.5 24.0896L15.3579 23.9604C9.22251 18.3933 5.16668 14.7121 5.16668 10.9792C5.16668 8.39583 7.10418 6.45833 9.68751 6.45833C11.6767 6.45833 13.6142 7.75 14.2988 9.50667H16.7013C17.3858 7.75 19.3233 6.45833 21.3125 6.45833C23.8958 6.45833 25.8333 8.39583 25.8333 10.9792C25.8333 14.7121 21.7775 18.3933 15.6292 23.9604ZM21.3125 3.875C19.065 3.875 16.9079 4.92125 15.5 6.56167C14.0921 4.92125 11.935 3.875 9.68751 3.875C5.70918 3.875 2.58334 6.98792 2.58334 10.9792C2.58334 15.8487 6.97501 19.84 13.6271 25.8721L15.5 27.5771L17.3729 25.8721C24.025 19.84 28.4167 15.8487 28.4167 10.9792C28.4167 6.98792 25.2908 3.875 21.3125 3.875Z"
        fill="#AEAEAE" />
</svg>