<svg width="41" height="50" viewBox="0 0 41 50" fill="none" xmlns="http://www.w3.org/2000/svg">
    <path
        d="M20.5 25.5002C21.8979 25.5002 23.095 25.002 24.0914 24.0057C25.0877 23.0093 25.585 21.8131 25.5833 20.4168C25.5833 19.0189 25.0852 17.8218 24.0888 16.8255C23.0925 15.8291 21.8962 15.3318 20.5 15.3335C19.1021 15.3335 17.905 15.8317 16.9086 16.828C15.9123 17.8243 15.415 19.0206 15.4167 20.4168C15.4167 21.8147 15.9148 23.0119 16.9112 24.0082C17.9075 25.0045 19.1038 25.5019 20.5 25.5002ZM20.5 49.9637C20.1611 49.9637 19.8222 49.9002 19.4833 49.7731C19.1445 49.646 18.8479 49.4766 18.5938 49.2647C12.409 43.8002 7.79167 38.727 4.74167 34.0452C1.69167 29.3635 0.166672 24.9901 0.166672 20.9252C0.166672 14.571 2.21102 9.50884 6.29971 5.7387C10.3884 1.96857 15.1218 0.0834961 20.5 0.0834961C25.8799 0.0834961 30.6141 1.96857 34.7028 5.7387C38.7915 9.50884 40.835 14.571 40.8333 20.9252C40.8333 24.9918 39.3083 29.366 36.2583 34.0478C33.2083 38.7295 28.591 43.8019 22.4063 49.2647C22.1521 49.4766 21.8556 49.646 21.5167 49.7731C21.1778 49.9002 20.8389 49.9637 20.5 49.9637Z"
        fill="#4A6594" />
</svg>