<svg width="56" height="56" viewBox="0 0 56 56" fill="none" xmlns="http://www.w3.org/2000/svg">
    <path
        d="M52.75 52.7501L40.8068 40.8068M40.8068 40.8068C42.8497 38.7639 44.4702 36.3386 45.5759 33.6693C46.6815 31.0001 47.2506 28.1392 47.2506 25.2501C47.2506 22.3609 46.6815 19.5001 45.5759 16.8308C44.4702 14.1616 42.8497 11.7363 40.8068 9.69333C38.7638 7.65039 36.3385 6.02984 33.6693 4.92421C31 3.81857 28.1392 3.24951 25.25 3.24951C22.3608 3.24951 19.5 3.81857 16.8307 4.92421C14.1615 6.02984 11.7362 7.65039 9.69325 9.69333C5.56735 13.8192 3.24944 19.4152 3.24944 25.2501C3.24944 31.085 5.56735 36.6809 9.69325 40.8068C13.8192 44.9327 19.4151 47.2506 25.25 47.2506C31.0849 47.2506 36.6808 44.9327 40.8068 40.8068Z"
        stroke="#4A6696" stroke-width="5" stroke-linecap="round" stroke-linejoin="round" />
</svg>