<svg width="46" height="58" viewBox="0 0 46 58" fill="none" xmlns="http://www.w3.org/2000/svg">
    <path
        d="M12.3438 3.92093C12.3139 3.93186 12.286 3.94756 12.2611 3.96743C9.79192 5.69259 7.77597 7.98869 6.38481 10.6604C4.99365 13.3321 4.26844 16.3002 4.27088 19.3124C4.2696 22.6156 5.14214 25.8603 6.79998 28.7172C8.45781 31.5742 10.8419 33.9418 13.7104 35.5797C15.1829 36.4244 16.2472 38.0468 16.1413 39.9248V39.93L15.3224 55.5798C15.2957 56.093 15.0662 56.5745 14.6844 56.9185C14.3027 57.2625 13.7999 57.4407 13.2867 57.414C12.7735 57.3873 12.292 57.1578 11.948 56.776C11.6041 56.3943 11.4258 55.8915 11.4525 55.3783L12.2715 39.7182V39.7078C12.287 39.4753 12.15 39.1524 11.7858 38.9432C8.32492 36.966 5.44847 34.1087 3.44815 30.6611C1.44784 27.2135 0.39482 23.2983 0.395882 19.3124C0.392923 15.6773 1.26792 12.0952 2.94646 8.8708C4.625 5.64641 7.05743 2.87508 10.0369 0.792509C10.675 0.33396 11.4342 0.0737107 12.2194 0.0443041C13.0047 0.0148975 13.7812 0.217639 14.4518 0.627176C15.7021 1.38151 16.5417 2.78426 16.5417 4.39884V16.5767C16.5417 16.687 16.5699 16.7955 16.6237 16.8918C16.6776 16.9882 16.7552 17.0691 16.8491 17.1269L22.6616 20.7048C22.8683 20.834 23.1318 20.834 23.3385 20.7048L29.151 17.1269C29.2449 17.0691 29.3225 16.9882 29.3764 16.8918C29.4302 16.7955 29.4584 16.687 29.4584 16.5767V4.40143C29.4584 2.78426 30.298 1.38151 31.5509 0.627176C32.2212 0.218188 32.9972 0.0157557 33.782 0.0451598C34.5667 0.0745638 35.3253 0.334501 35.9632 0.792509C38.9426 2.87579 41.3749 5.64763 43.0534 8.87241C44.7319 12.0972 45.6069 15.6796 45.6042 19.315C45.6051 23.3008 44.5517 27.2159 42.5509 30.6631C40.5501 34.1103 37.673 36.9669 34.2117 38.9432C33.85 39.1524 33.7131 39.4753 33.726 39.7078V39.7182L34.5475 55.3783C34.5608 55.6324 34.5238 55.8867 34.4388 56.1265C34.3538 56.3663 34.2224 56.587 34.0521 56.776C33.8817 56.9651 33.6759 57.1187 33.4462 57.2282C33.2165 57.3376 32.9675 57.4008 32.7134 57.414C32.4593 57.4272 32.2051 57.3903 31.9653 57.3053C31.7254 57.2203 31.5047 57.0888 31.3157 56.9185C31.1266 56.7482 30.973 56.5423 30.8636 56.3126C30.7541 56.0829 30.6909 55.8339 30.6777 55.5798L29.8588 39.93V39.9248C29.7529 38.0468 30.8146 36.4244 32.2871 35.5797C35.1562 33.9423 37.541 31.5749 39.1994 28.7179C40.8577 25.8608 41.7305 22.6159 41.7292 19.3124C41.7317 16.3002 41.0065 13.3321 39.6153 10.6604C38.2241 7.98869 36.2082 5.69259 33.739 3.96743C33.7141 3.94756 33.6862 3.93186 33.6563 3.92093L33.6305 3.91834C33.6227 3.91834 33.5943 3.91834 33.5504 3.94418C33.4574 4.00101 33.3334 4.14826 33.3334 4.40143V16.5741C33.3334 18.1448 32.5196 19.6018 31.1815 20.4233L25.369 24.0012C24.6565 24.4395 23.8365 24.6715 23 24.6715C22.1636 24.6715 21.3435 24.4395 20.6311 24.0012L14.8186 20.4258C14.1619 20.0212 13.6194 19.4554 13.2428 18.7822C12.8662 18.109 12.6679 17.3507 12.6667 16.5793V4.39884C12.6667 4.14568 12.5427 3.99843 12.4497 3.94418C12.4257 3.92829 12.3982 3.91853 12.3696 3.91576L12.3438 3.91834V3.92093Z"
        fill="#4A6696" />
</svg>