<svg width="23" height="28" viewBox="0 0 23 28" fill="none" xmlns="http://www.w3.org/2000/svg">
<path d="M4.3168 27.7145C4.0052 27.6499 3.68824 27.6032 3.38267 27.5172C1.42661 26.9691 0.189582 25.4682 0.103808 23.4253C0.0146829 21.3144 0.247882 19.2348 1.05336 17.2585C1.57403 15.9823 2.32992 14.8789 3.59643 14.2048C4.37778 13.7894 5.21609 13.5907 6.0926 13.6087C6.36936 13.6147 6.66018 13.7534 6.91282 13.8901C7.31957 14.1101 7.69685 14.3835 8.09154 14.6262C10.3873 16.0363 12.6838 16.035 14.9776 14.6208C15.2959 14.4241 15.6216 14.2348 15.9205 14.0121C16.4693 13.6027 17.0737 13.5514 17.7257 13.6467C19.5062 13.9067 20.7634 14.8775 21.6111 16.4251C22.3676 17.8072 22.7087 19.3074 22.8601 20.8543C22.9379 21.6484 22.9747 22.4505 22.9654 23.248C22.9365 25.6303 21.2934 27.4032 18.9118 27.6645C18.8529 27.6712 18.7959 27.6972 18.7376 27.7145C13.9302 27.7145 9.12352 27.7145 4.3168 27.7145Z" fill="#4A6594"/>
<path d="M17.9725 6.97182C17.9966 10.5703 15.012 13.556 11.3753 13.566C7.73991 13.576 4.74518 10.5943 4.74317 7.00582C4.74115 3.37535 7.65882 0.432303 11.3284 0.404966C14.9845 0.378296 17.9504 3.30868 17.9725 6.97182Z" fill="#4A6594"/>
</svg>
