<svg width="31" height="37" viewBox="0 0 31 37" fill="none" xmlns="http://www.w3.org/2000/svg">
<path d="M11.3166 31.7145C11.005 31.6499 10.688 31.6032 10.3824 31.5172C8.42636 30.9691 7.18934 29.4682 7.10356 27.4253C7.01444 25.3144 7.24764 23.2348 8.05311 21.2585C8.57379 19.9823 9.32968 18.8789 10.5962 18.2048C11.3775 17.7894 12.2158 17.5907 13.0924 17.6087C13.3691 17.6147 13.6599 17.7534 13.9126 17.8901C14.3193 18.1101 14.6966 18.3835 15.0913 18.6262C17.3871 20.0363 19.6836 20.035 21.9774 18.6208C22.2957 18.4241 22.6213 18.2348 22.9202 18.0121C23.469 17.6027 24.0735 17.5514 24.7255 17.6467C26.506 17.9067 27.7631 18.8775 28.6108 20.4251C29.3674 21.8072 29.7085 23.3074 29.8599 24.8543C29.9376 25.6484 29.9745 26.4505 29.9651 27.248C29.9363 29.6303 28.2932 31.4032 25.9116 31.6645C25.8526 31.6712 25.7957 31.6972 25.7374 31.7145C20.93 31.7145 16.1233 31.7145 11.3166 31.7145Z" fill="#4A6594"/>
<path d="M24.9722 10.9718C24.9963 14.5703 22.0116 17.556 18.3749 17.566C14.7395 17.576 11.7448 14.5943 11.7428 11.0058C11.7408 7.37535 14.6585 4.4323 18.328 4.40497C21.9841 4.3783 24.95 7.30868 24.9722 10.9718Z" fill="#4A6594"/>
</svg>
