<svg
        width="285"
        style="max-width: 100%; height: auto"
        viewBox="0 0 285 41"
        fill="none"
        xmlns="http://www.w3.org/2000/svg"
      >
        <path
          d="M68.6923 34.5315V32.0815H68.5623C68.2323 32.8715 65.9923 34.9415 62.1723 34.9415C57.2723 34.9415 51.8823 31.2515 51.8823 23.7315C51.8823 16.2115 57.2823 12.5215 62.1723 12.5215C65.9923 12.5215 68.2323 14.6015 68.5623 15.3815H68.6923V5.06152H75.1223V34.5315H68.6923ZM63.5123 29.2215C66.3323 29.2215 68.8623 27.2715 68.8623 23.7415C68.8623 20.2115 66.3323 18.2615 63.5123 18.2615C60.7723 18.2615 58.2423 20.2515 58.2423 23.7415C58.2423 27.2315 60.7723 29.2215 63.5123 29.2215Z"
          fill="#4A6594"
        />
        <path
          d="M77.9922 23.7815C77.9922 16.4815 83.4322 12.5315 88.9922 12.5315C94.4722 12.5315 100.902 16.3515 99.5322 26.2315H84.1822C85.0522 28.5515 87.2122 29.7215 90.0722 29.7215C91.9822 29.7215 93.6822 29.2615 95.2622 28.0615L98.1722 31.0915C96.3922 33.3315 93.3122 34.9515 89.3722 34.9515C83.3922 34.9515 77.9922 30.8815 77.9922 23.7815ZM93.8922 21.6215C93.4322 19.1315 91.2322 17.9315 89.0822 17.9315C86.9322 17.9315 84.7622 19.0515 84.0622 21.6215H93.8922Z"
          fill="#4A6594"
        />
        <path
          d="M101.572 23.7415C101.572 16.2315 106.972 12.5315 111.862 12.5315C115.682 12.5315 117.922 14.6115 118.252 15.3915H118.372V12.9415H124.802V34.5215H118.372V32.0715H118.252C117.922 32.8615 115.682 34.9315 111.862 34.9315C106.972 34.9515 101.572 31.2515 101.572 23.7415ZM113.192 29.2215C116.012 29.2215 118.542 27.2715 118.542 23.7415C118.542 20.2115 116.012 18.2615 113.192 18.2615C110.452 18.2615 107.922 20.2515 107.922 23.7415C107.922 27.2315 110.452 29.2215 113.192 29.2215Z"
          fill="#4A6594"
        />
        <path
          d="M128.722 5.06152H135.152V34.5315H128.722V5.06152Z"
          fill="#4A6594"
        />
        <path
          d="M137.812 28.8015L142.923 27.4315C143.253 28.4715 144.003 29.9215 146.033 29.9215C147.193 29.9215 148.273 29.3415 148.273 28.1415C148.273 27.4315 147.863 26.7715 146.443 26.3115L143.542 25.2315C139.972 23.9415 138.432 21.6215 138.432 18.9215C138.432 14.8915 142.043 12.5315 146.273 12.5315C150.343 12.5315 153.283 14.8115 154.033 18.3015L149.012 19.5515C148.472 17.8915 147.393 17.5215 146.523 17.5215C145.273 17.5215 144.652 18.2715 144.652 19.0115C144.652 19.7215 145.073 20.3815 146.523 20.8415L149.223 21.8415C151.543 22.6315 154.622 24.2515 154.622 28.1515C154.622 32.5115 150.933 34.9615 146.113 34.9615C141.753 34.9515 138.483 32.9115 137.812 28.8015Z"
          fill="#4A6594"
        />
        <path
          d="M156.452 23.7415C156.452 16.2315 161.852 12.5315 166.742 12.5315C170.562 12.5315 172.802 14.6115 173.132 15.3915H173.262V12.9415H179.692V34.5215H173.262V32.0715H173.132C172.802 32.8615 170.562 34.9315 166.742 34.9315C161.842 34.9515 156.452 31.2515 156.452 23.7415ZM168.072 29.2215C170.892 29.2215 173.422 27.2715 173.422 23.7415C173.422 20.2115 170.892 18.2615 168.072 18.2615C165.332 18.2615 162.802 20.2515 162.802 23.7415C162.802 27.2315 165.332 29.2215 168.072 29.2215Z"
          fill="#4A6594"
        />
        <path
          d="M190.033 5.06152V15.3915H190.163C190.493 14.6015 192.733 12.5315 196.553 12.5315C201.453 12.5315 206.843 16.2215 206.843 23.7415C206.843 31.2615 201.453 34.9515 196.553 34.9515C192.733 34.9515 190.493 32.8715 190.163 32.0915H190.033V34.5415H183.603V5.06152H190.033ZM195.223 29.2215C197.963 29.2215 200.493 27.2315 200.493 23.7415C200.493 20.2515 197.963 18.2615 195.223 18.2615C192.403 18.2615 189.873 20.2115 189.873 23.7415C189.873 27.2715 192.403 29.2215 195.223 29.2215Z"
          fill="#4A6594"
        />
        <path
          d="M208.672 23.7415C208.672 16.2315 214.072 12.5315 218.962 12.5315C222.782 12.5315 225.022 14.6115 225.352 15.3915H225.482V12.9415H231.912V34.5215H225.482V32.0715H225.352C225.022 32.8615 222.782 34.9315 218.962 34.9315C214.072 34.9515 208.672 31.2515 208.672 23.7415ZM220.292 29.2215C223.112 29.2215 225.642 27.2715 225.642 23.7415C225.642 20.2115 223.112 18.2615 220.292 18.2615C217.552 18.2615 215.022 20.2515 215.022 23.7415C215.022 27.2315 217.552 29.2215 220.292 29.2215Z"
          fill="#4A6594"
        />
        <path
          d="M234.782 23.7415C234.782 16.2315 240.182 12.5315 245.072 12.5315C248.892 12.5315 251.132 14.6115 251.462 15.3915H251.582V12.9415H258.012V34.5215H251.582V32.0715H251.462C251.132 32.8615 248.892 34.9315 245.072 34.9315C240.182 34.9515 234.782 31.2515 234.782 23.7415ZM246.402 29.2215C249.222 29.2215 251.752 27.2715 251.752 23.7415C251.752 20.2115 249.222 18.2615 246.402 18.2615C243.662 18.2615 241.132 20.2515 241.132 23.7415C241.132 27.2315 243.662 29.2215 246.402 29.2215Z"
          fill="#4A6594"
        />
        <path
          d="M277.703 34.5315V32.0815H277.573C277.243 32.8715 275.003 34.9415 271.183 34.9415C266.283 34.9415 260.893 31.2515 260.893 23.7315C260.893 16.2115 266.293 12.5215 271.183 12.5215C275.003 12.5215 277.243 14.6015 277.573 15.3815H277.703V5.06152H284.133V34.5315H277.703ZM272.513 29.2215C275.333 29.2215 277.863 27.2715 277.863 23.7415C277.863 20.2115 275.333 18.2615 272.513 18.2615C269.773 18.2615 267.243 20.2515 267.243 23.7415C267.243 27.2315 269.773 29.2215 272.513 29.2215Z"
          fill="#4A6594"
        />
        <path
          d="M44.0325 20.8515L42.2225 22.6615C41.7625 23.1315 41.0025 23.1315 40.5325 22.6615L39.4225 21.5515L39.1725 21.3015C33.9325 16.0615 28.6925 10.8315 23.4525 5.59149C22.5225 4.66149 21.8025 4.67149 20.8725 5.60149L18.5825 7.89149L18.6025 7.91149L3.8625 22.6515C3.3925 23.1215 2.6325 23.1215 2.1625 22.6515L0.3525 20.8415C-0.1175 20.3715 -0.1175 19.6215 0.3525 19.1515L1.5525 17.9515L1.6225 17.8815C1.7325 17.7615 1.8425 17.6515 1.9625 17.5315C4.5625 14.9415 7.1525 12.3515 9.7525 9.75149L15.1125 4.39149C15.9225 3.58149 16.7325 2.78149 17.5425 1.97149C19.7225 -0.208507 22.9325 -0.628507 25.5425 0.951493C26.0025 1.24149 26.4325 1.62149 26.8325 2.01149C27.6525 2.81149 28.4625 3.62149 29.2725 4.43149C29.9625 5.12149 30.6525 5.82149 31.3425 6.51149C31.3625 6.53149 31.3925 6.54149 31.4525 6.59149V6.57149L44.0425 19.1615C44.5025 19.6215 44.5025 20.3815 44.0325 20.8515Z"
          fill="#FFD624"
        />
        <path
          d="M13.9427 31.1114C13.9527 31.3414 13.9427 31.5714 13.9427 31.7914C13.9427 32.0014 13.9427 32.2214 13.9427 32.4314C13.9327 32.8214 13.6427 33.1114 13.2727 33.1014C12.9127 33.1014 12.6227 32.8114 12.6227 32.4314C12.6127 31.9914 12.6127 31.5514 12.6227 31.1114C12.6327 30.7314 12.9227 30.4514 13.2827 30.4514C13.6427 30.4514 13.9327 30.7414 13.9427 31.1114Z"
          fill="#FFD624"
        />
        <path
          d="M13.9427 35.1014C13.9527 35.3214 13.9427 35.5414 13.9427 35.7614C13.9427 35.9814 13.9427 36.1914 13.9427 36.4014C13.9427 36.7914 13.6527 37.0814 13.2927 37.0814C12.9227 37.0814 12.6327 36.7914 12.6227 36.4014C12.6127 35.9614 12.6127 35.5314 12.6227 35.0914C12.6227 34.7114 12.9227 34.4114 13.2927 34.4214C13.6527 34.4414 13.9327 34.7214 13.9427 35.1014Z"
          fill="#FFD624"
        />
        <path
          d="M18.8525 25.3614C18.8625 24.9814 19.1525 24.7014 19.5125 24.7014C19.8725 24.7014 20.1725 24.9814 20.1725 25.3514C20.1825 25.8014 20.1825 26.2514 20.1725 26.6914C20.1725 27.0714 19.8725 27.3514 19.5125 27.3414C19.1525 27.3414 18.8625 27.0514 18.8525 26.6714C18.8525 26.4514 18.8525 26.2214 18.8525 25.9914C18.8525 25.7914 18.8525 25.5814 18.8525 25.3614Z"
          fill="#FFD624"
        />
        <path
          d="M18.8525 22.7014C18.8525 22.2714 18.8525 21.8314 18.8525 21.4014C18.8625 21.0114 19.1525 20.7214 19.5225 20.7214C19.8925 20.7214 20.1725 21.0114 20.1825 21.4014C20.1825 21.6114 20.1825 21.8314 20.1825 22.0414C20.1825 22.2614 20.1825 22.4814 20.1825 22.7014C20.1725 23.0814 19.8825 23.3614 19.5325 23.3714C19.1525 23.3814 18.8625 23.0914 18.8525 22.7014Z"
          fill="#FFD624"
        />
        <path
          d="M18.8525 29.3614C18.8625 28.9814 19.1525 28.6814 19.5225 28.6914C19.8825 28.6914 20.1725 28.9814 20.1825 29.3514C20.1825 29.5714 20.1825 29.7914 20.1825 30.0114C20.1825 30.2314 20.1825 30.4514 20.1825 30.6714C20.1725 31.0514 19.8825 31.3314 19.5225 31.3414C19.1525 31.3414 18.8625 31.0514 18.8525 30.6614C18.8525 30.2314 18.8525 29.7914 18.8525 29.3614Z"
          fill="#FFD624"
        />
        <path
          d="M18.8525 33.3314C18.8625 32.9514 19.1525 32.6714 19.5125 32.6714C19.8725 32.6714 20.1625 32.9514 20.1825 33.3214C20.1825 33.5514 20.1825 33.7814 20.1825 34.0014C20.1825 34.2114 20.1825 34.4314 20.1825 34.6414C20.1725 35.0314 19.8825 35.3214 19.5125 35.3214C19.1525 35.3214 18.8625 35.0314 18.8625 34.6514C18.8525 34.2114 18.8525 33.7614 18.8525 33.3314Z"
          fill="#FFD624"
        />
        <path
          d="M22.8324 33.9914C22.8324 34.2114 22.8424 34.4314 22.8324 34.6514C22.8224 35.0314 22.5324 35.3114 22.1724 35.3114C21.8124 35.3114 21.5124 35.0314 21.5124 34.6514C21.5024 34.2014 21.5024 33.7514 21.5124 33.3114C21.5224 32.9414 21.8224 32.6614 22.1824 32.6614C22.5324 32.6614 22.8224 32.9414 22.8324 33.3114C22.8424 33.5414 22.8324 33.7614 22.8324 33.9914Z"
          fill="#FFD624"
        />
        <path
          d="M22.8324 30.0114C22.8324 30.2214 22.8324 30.4414 22.8324 30.6514C22.8224 31.0414 22.5424 31.3314 22.1724 31.3414C21.8024 31.3414 21.5124 31.0514 21.5124 30.6614C21.5024 30.2314 21.5024 29.7914 21.5124 29.3614C21.5124 28.9714 21.8124 28.6814 22.1824 28.6914C22.5424 28.6914 22.8324 28.9814 22.8324 29.3514C22.8424 29.5714 22.8324 29.7914 22.8324 30.0114Z"
          fill="#FFD624"
        />
        <path
          d="M21.5124 25.3714C21.5224 24.9914 21.8024 24.7114 22.1624 24.7014C22.5324 24.7014 22.8324 24.9914 22.8324 25.3714C22.8424 25.8114 22.8324 26.2414 22.8324 26.6714C22.8324 27.0614 22.5324 27.3514 22.1724 27.3514C21.8024 27.3514 21.5224 27.0614 21.5124 26.6714C21.5124 26.4614 21.5124 26.2414 21.5124 26.0314C21.5024 25.8114 21.5024 25.5914 21.5124 25.3714Z"
          fill="#FFD624"
        />
        <path
          d="M22.8324 22.0614C22.8324 22.2714 22.8324 22.4914 22.8324 22.7014C22.8224 23.0914 22.5324 23.3814 22.1624 23.3814C21.8024 23.3814 21.5124 23.0914 21.5124 22.7114C21.5024 22.2714 21.5024 21.8314 21.5124 21.3814C21.5124 21.0114 21.8124 20.7214 22.1724 20.7214C22.5324 20.7214 22.8224 21.0014 22.8324 21.3714C22.8424 21.6114 22.8324 21.8314 22.8324 22.0614Z"
          fill="#FFD624"
        />
        <path
          d="M24.8126 35.3114C24.4526 35.3114 24.1626 35.0214 24.1626 34.6514C24.1626 34.4314 24.1626 34.2114 24.1626 33.9914C24.1626 33.7714 24.1626 33.5514 24.1626 33.3314C24.1726 32.9514 24.4626 32.6714 24.8126 32.6714C25.1726 32.6714 25.4726 32.9514 25.4826 33.3214C25.4926 33.7714 25.4926 34.2214 25.4826 34.6614C25.4726 35.0414 25.1826 35.3214 24.8126 35.3114Z"
          fill="#FFD624"
        />
        <path
          d="M24.1626 25.3714C24.1726 24.9914 24.4626 24.7114 24.8126 24.7014C25.1726 24.7014 25.4726 24.9814 25.4826 25.3514C25.4926 25.8014 25.4926 26.2514 25.4826 26.6914C25.4726 27.0714 25.1826 27.3514 24.8126 27.3414C24.4526 27.3414 24.1626 27.0514 24.1626 26.6814C24.1626 26.4614 24.1626 26.2414 24.1626 26.0214C24.1626 25.8114 24.1626 25.5914 24.1626 25.3714Z"
          fill="#FFD624"
        />
        <path
          d="M24.1626 22.7114C24.1626 22.4914 24.1626 22.2714 24.1626 22.0514C24.1626 21.8314 24.1626 21.6114 24.1626 21.3914C24.1726 21.0114 24.4626 20.7314 24.8126 20.7314C25.1726 20.7314 25.4726 21.0114 25.4826 21.3814C25.4926 21.8314 25.4926 22.2814 25.4826 22.7314C25.4726 23.1014 25.1726 23.3814 24.8126 23.3814C24.4626 23.3714 24.1726 23.0814 24.1626 22.7114Z"
          fill="#FFD624"
        />
        <path
          d="M25.4924 29.3714C25.4924 29.5814 25.4924 29.8014 25.4924 30.0114C25.4924 30.2314 25.4924 30.4514 25.4924 30.6714C25.4824 31.0514 25.2024 31.3314 24.8424 31.3414C24.4724 31.3414 24.1824 31.0514 24.1724 30.6614C24.1724 30.2214 24.1724 29.7914 24.1724 29.3614C24.1724 28.9714 24.4724 28.6814 24.8424 28.6814C25.1924 28.6814 25.4824 28.9814 25.4924 29.3714Z"
          fill="#FFD624"
        />
        <path
          d="M25.4923 37.4316V40.0016H24.1523V37.9916H22.8523V40.0016H21.5023V37.9916H20.2023V40.0016H18.8623V37.4316C18.8623 36.9016 19.1123 36.6416 19.6523 36.6416H24.7123C25.2323 36.6416 25.4923 36.8916 25.4923 37.4316Z"
          fill="#FFD624"
        />
        <path
          d="M31.7226 31.1214C31.7226 31.3514 31.7226 31.5814 31.7226 31.8014C31.7226 32.0114 31.7226 32.2114 31.7226 32.4214C31.7126 32.8114 31.4326 33.1014 31.0626 33.1014C30.6926 33.1014 30.4026 32.8114 30.3926 32.4214C30.3926 31.9814 30.3926 31.5514 30.3926 31.1214C30.4026 30.7314 30.6926 30.4414 31.0626 30.4414C31.4226 30.4514 31.7126 30.7414 31.7226 31.1214Z"
          fill="#FFD624"
        />
        <path
          d="M31.7226 35.0914C31.7326 35.5414 31.7326 35.9914 31.7226 36.4314C31.7126 36.8014 31.4126 37.0914 31.0526 37.0814C30.6926 37.0814 30.4026 36.7914 30.3926 36.4114C30.3926 36.1914 30.3926 35.9614 30.3926 35.7314C30.3926 35.5114 30.3926 35.3014 30.3926 35.0914C30.4026 34.7114 30.6926 34.4314 31.0526 34.4314C31.4126 34.4314 31.7126 34.7114 31.7226 35.0914Z"
          fill="#FFD624"
        />
        <path
          d="M37.7023 25.3816C37.6923 28.7816 37.7023 32.1716 37.6923 35.5716C37.6823 37.7516 36.1523 39.5516 34.0223 39.9416C33.8523 39.9716 33.6723 39.9916 33.5023 39.9916V28.2816C33.3223 27.9016 33.0223 27.7816 32.6123 27.7916C31.3623 27.8116 30.1223 27.8016 28.8823 27.8016H28.6523V40.0016H27.3023C27.3023 33.2816 27.3023 26.5616 27.3023 19.8516C27.3023 19.4416 27.1923 19.1316 26.8123 18.9616H17.5223C17.1423 19.1316 17.0323 19.4416 17.0323 19.8516C17.0423 26.5716 17.0423 33.2816 17.0423 40.0016H15.7023V27.8016H11.6123C11.0923 27.8016 10.8423 28.0616 10.8423 28.5716V39.9816C8.65232 39.8216 7.04232 38.3516 6.68232 36.1616C6.64232 35.9016 6.64232 35.6316 6.64232 35.3716C6.64232 32.0516 6.64232 28.7216 6.63232 25.3916C6.63232 24.8616 6.80232 24.4616 7.17232 24.0916C11.8223 19.4516 16.4623 14.8116 21.1123 10.1616C21.8523 9.43161 22.4723 9.42161 23.2023 10.1616C27.8523 14.8016 32.4923 19.4516 37.1423 24.0816C37.5223 24.4516 37.7023 24.8516 37.7023 25.3816Z"
          fill="#FFD624"
        />
      </svg>