<svg width="329" height="111" viewBox="0 0 329 111" fill="none" xmlns="http://www.w3.org/2000/svg">
<path d="M329 95.8C329 97.8 329 99.8 329 101.8C327 109.4 325.2 110.8 317.1 110.8C217.1 110.8 117.2 110.8 17.1999 110.8C8.49991 110.8 3.09991 105.8 2.59991 97.3C1.99991 89 7.99991 81.8 16.3999 81.2C24.4999 80.6 32.6999 81.1 40.8999 81C43.0999 81 45.1999 81.1 47.3999 80.7C49.6999 80.3 51.5999 79.2 51.5999 76.6C51.5999 73.9 49.5999 73 47.1999 72.8C42.1999 72.4 37.1999 72.7 32.1999 72.6C29.6999 72.6 27.1999 72.7 24.7999 72C20.4999 70.8 17.6999 67 17.8999 62.7C18.0999 58.5 21.2999 55 25.7999 54.3C27.7999 54 29.7999 54.1 31.7999 54.1C48.7999 54.1 65.7999 54.1 82.7999 54.1C84.7999 54.1 86.7999 54.2 88.7999 53.9C90.6999 53.6 92.5999 53.2 92.6999 50.8C92.7999 48.4 90.8999 47.9 88.8999 47.7C86.8999 47.5 84.8999 47.5 82.8999 47.5C71.5999 47.5 60.1999 47.7 48.8999 47.4C42.5999 47.2 38.7999 43.6 38.5999 38.1C38.2999 32 41.7999 28.3 48.4999 28.1C60.1999 27.7 71.7999 28 83.4999 28C86.9999 28 90.4999 28.1 93.9999 27.9C97.0999 27.7 99.0999 26.5 99.1999 23.1C99.2999 19.6 97.3999 17.9 94.0999 17.7C84.0999 17.3 74.0999 17.6 64.0999 17.5C56.5999 17.4 49.0999 17.8 41.5999 17.3C35.4999 16.9 32.0999 12.9 32.8999 7.4C33.4999 3.6 35.5999 0.999999 39.5999 0.299999C42.0999 -0.200001 44.5999 -7.45058e-07 47.0999 -7.45058e-07C123 -7.45058e-07 199.1 -7.45058e-07 275.3 -7.45058e-07C277.6 -7.45058e-07 280 -0.100001 282.3 0.199999C287.3 0.999999 291.1 5.4 291.1 10.2C291.1 15 287.7 18.6 282.2 19.2C277.2 19.8 272.2 19.3 267.2 19.5C264.3 19.6 261.5 20.2 261.6 23.7C261.7 27.2 264.5 27.8 267.3 27.8C279.3 28 291.3 27.8 303.3 27.9C305.8 27.9 308.3 27.8 310.7 28.6C314.6 29.9 317.2 33.3 317.2 37.1C317.2 40.9 314.6 44.3 310.6 45.6C308.2 46.4 305.7 46.3 303.2 46.3C284.5 46.3 265.9 46.3 247.2 46.3C245.2 46.3 243.2 46.3 241.2 46.4C238.9 46.6 236.6 47.1 236.5 49.9C236.4 53 238.9 53.5 241.4 53.7C243.4 53.9 245.4 53.8 247.4 53.8C257.9 53.9 268.4 53.5 278.9 53.9C286.4 54.2 289.8 58.9 288.2 66C287.2 70.5 284.2 72.9 278.7 73.1C270.5 73.4 262.4 73.2 254.2 73.2C245.7 73.3 237.2 73 228.7 73.3C224 73.5 222.8 74.9 222.8 78.9C222.8 83.6 226.1 83.6 229.4 83.7C253 84.1 276.7 85.2 300.3 84.8C305.6 84.7 311 84.5 316.3 85C323.8 85.9 327.2 88.9 329 95.8Z" fill="#F1EFF2"/>
<path d="M0 35.8C1.9 31.2 5.3 29.4 10.2 29.7C15 30 19.9 29.7 24.7 29.8C29.6 29.9 33 33 33 37.3C33 41.5 29.6 44.7 24.7 44.8C19.9 44.9 15 44.6 10.2 44.9C5.3 45.1 1.9 43.3 0 38.8C0 37.8 0 36.8 0 35.8Z" fill="#F1EFF2"/>
<path d="M311.3 57.8C314 57.8 316.6 57.7 319.3 57.8C324.4 57.9 326.8 60 327 64.4C327.2 68.7 324.4 72.5 320.1 72.7C314.1 73 308.1 73 302.1 72.7C297.7 72.5 294.8 68.9 295 64.7C295.2 59.9 297.5 57.9 302.8 57.8C305.7 57.7 308.5 57.8 311.3 57.8Z" fill="#F1EFF2"/>
<path d="M191.25 62H135.917C132.112 62 129.035 65.1125 129.035 68.9167L129 110.417C129 114.221 132.112 117.333 135.917 117.333H191.25C195.054 117.333 198.167 114.221 198.167 110.417V68.9167C198.167 65.1125 195.054 62 191.25 62ZM189.867 76.6979L165.416 91.9838C164.31 92.6754 162.857 92.6754 161.75 91.9838L137.3 76.6979C136.953 76.5033 136.65 76.2402 136.407 75.9248C136.165 75.6094 135.99 75.2481 135.891 74.8628C135.792 74.4775 135.773 74.0763 135.834 73.6833C135.895 73.2903 136.035 72.9139 136.246 72.5766C136.457 72.2394 136.734 71.9484 137.06 71.7214C137.387 71.4943 137.756 71.3358 138.146 71.2555C138.535 71.1753 138.937 71.1748 139.326 71.2543C139.716 71.3338 140.086 71.4915 140.413 71.7179L163.583 86.2083L186.754 71.7179C187.081 71.4915 187.451 71.3338 187.84 71.2543C188.23 71.1748 188.632 71.1753 189.021 71.2555C189.411 71.3358 189.78 71.4943 190.106 71.7214C190.433 71.9484 190.71 72.2394 190.92 72.5766C191.131 72.9139 191.271 73.2903 191.332 73.6833C191.394 74.0763 191.374 74.4775 191.276 74.8628C191.177 75.2481 191.001 75.6094 190.759 75.9248C190.517 76.2402 190.213 76.5033 189.867 76.6979Z" fill="#4A6594"/>
</svg>
