<?xml version="1.0" encoding="utf-8"?>
<!-- Generator: Adobe Illustrator 23.0.1, SVG Export Plug-In . SVG Version: 6.00 Build 0)  -->
<svg version="1.1" id="Layer_1" xmlns="http://www.w3.org/2000/svg" xmlns:xlink="http://www.w3.org/1999/xlink" x="0px" y="0px"
	 viewBox="0 0 284.1 40" style="enable-background:new 0 0 284.1 40;" xml:space="preserve">
<style type="text/css">
	.st0{fill:#595959;}
	.st1{fill:#FFD624;}
</style>
<g>
	<g>
		<path class="st0" d="M68.7,34.5v-2.4h-0.1c-0.3,0.8-2.6,2.9-6.4,2.9c-4.9,0-10.3-3.7-10.3-11.2s5.4-11.2,10.3-11.2
			c3.8,0,6.1,2.1,6.4,2.9h0.1V5.1h6.4v29.5H68.7z M63.5,29.2c2.8,0,5.4-2,5.4-5.5s-2.5-5.5-5.4-5.5c-2.7,0-5.3,2-5.3,5.5
			S60.8,29.2,63.5,29.2z"/>
		<path class="st0" d="M78,23.8c0-7.3,5.4-11.2,11-11.2c5.5,0,11.9,3.8,10.5,13.7H84.2c0.9,2.3,3,3.5,5.9,3.5c1.9,0,3.6-0.5,5.2-1.7
			l2.9,3c-1.8,2.2-4.9,3.9-8.8,3.9C83.4,34.9,78,30.9,78,23.8z M93.9,21.6c-0.5-2.5-2.7-3.7-4.8-3.7s-4.3,1.1-5,3.7H93.9z"/>
		<path class="st0" d="M101.6,23.7c0-7.5,5.4-11.2,10.3-11.2c3.8,0,6.1,2.1,6.4,2.9h0.1v-2.4h6.4v21.6h-6.4v-2.4h-0.1
			c-0.3,0.8-2.6,2.9-6.4,2.9C107,34.9,101.6,31.2,101.6,23.7z M113.2,29.2c2.8,0,5.4-2,5.4-5.5s-2.5-5.5-5.4-5.5
			c-2.7,0-5.3,2-5.3,5.5S110.5,29.2,113.2,29.2z"/>
		<path class="st0" d="M128.7,5.1h6.4v29.5h-6.4V5.1z"/>
		<path class="st0" d="M137.8,28.8l5.1-1.4c0.3,1,1.1,2.5,3.1,2.5c1.2,0,2.2-0.6,2.2-1.8c0-0.7-0.4-1.4-1.8-1.8l-2.9-1.1
			c-3.6-1.3-5.1-3.6-5.1-6.3c0-4,3.6-6.4,7.8-6.4c4.1,0,7,2.3,7.8,5.8l-5,1.2c-0.5-1.7-1.6-2-2.5-2c-1.2,0-1.9,0.7-1.9,1.5
			c0,0.7,0.4,1.4,1.9,1.8l2.7,1c2.3,0.8,5.4,2.4,5.4,6.3c0,4.4-3.7,6.8-8.5,6.8C141.8,34.9,138.5,32.9,137.8,28.8z"/>
		<path class="st0" d="M156.4,23.7c0-7.5,5.4-11.2,10.3-11.2c3.8,0,6.1,2.1,6.4,2.9h0.1v-2.4h6.4v21.6h-6.4v-2.4h-0.1
			c-0.3,0.8-2.6,2.9-6.4,2.9C161.8,34.9,156.4,31.2,156.4,23.7z M168.1,29.2c2.8,0,5.4-2,5.4-5.5s-2.5-5.5-5.4-5.5
			c-2.7,0-5.3,2-5.3,5.5S165.3,29.2,168.1,29.2z"/>
		<path class="st0" d="M190,5.1v10.3h0.1c0.3-0.8,2.6-2.9,6.4-2.9c4.9,0,10.3,3.7,10.3,11.2s-5.4,11.2-10.3,11.2
			c-3.8,0-6.1-2.1-6.4-2.9H190v2.4h-6.4V5.1H190z M195.2,29.2c2.7,0,5.3-2,5.3-5.5s-2.5-5.5-5.3-5.5c-2.8,0-5.4,2-5.4,5.5
			S192.4,29.2,195.2,29.2z"/>
		<path class="st0" d="M208.7,23.7c0-7.5,5.4-11.2,10.3-11.2c3.8,0,6.1,2.1,6.4,2.9h0.1v-2.4h6.4v21.6h-6.4v-2.4h-0.1
			c-0.3,0.8-2.6,2.9-6.4,2.9C214.1,34.9,208.7,31.2,208.7,23.7z M220.3,29.2c2.8,0,5.4-2,5.4-5.5s-2.5-5.5-5.4-5.5
			c-2.7,0-5.3,2-5.3,5.5S217.6,29.2,220.3,29.2z"/>
		<path class="st0" d="M234.8,23.7c0-7.5,5.4-11.2,10.3-11.2c3.8,0,6.1,2.1,6.4,2.9h0.1v-2.4h6.4v21.6h-6.4v-2.4h-0.1
			c-0.3,0.8-2.6,2.9-6.4,2.9C240.2,34.9,234.8,31.2,234.8,23.7z M246.4,29.2c2.8,0,5.4-2,5.4-5.5s-2.5-5.5-5.4-5.5
			c-2.7,0-5.3,2-5.3,5.5S243.7,29.2,246.4,29.2z"/>
		<path class="st0" d="M277.7,34.5v-2.4h-0.1c-0.3,0.8-2.6,2.9-6.4,2.9c-4.9,0-10.3-3.7-10.3-11.2s5.4-11.2,10.3-11.2
			c3.8,0,6.1,2.1,6.4,2.9h0.1V5.1h6.4v29.5H277.7z M272.5,29.2c2.8,0,5.4-2,5.4-5.5s-2.5-5.5-5.4-5.5c-2.7,0-5.3,2-5.3,5.5
			S269.8,29.2,272.5,29.2z"/>
	</g>
	<g>
		<path class="st1" d="M44,20.8l-1.8,1.8c-0.5,0.5-1.2,0.5-1.7,0l-1.1-1.1l-0.3-0.2C33.9,16,28.7,10.8,23.5,5.6
			c-0.9-0.9-1.6-0.9-2.6,0l-2.3,2.3l0,0L3.9,22.6c-0.5,0.5-1.2,0.5-1.7,0l-1.8-1.8c-0.5-0.5-0.5-1.2,0-1.7l1.2-1.2l0.1-0.1
			c0.1-0.1,0.2-0.2,0.3-0.3c2.6-2.6,5.2-5.2,7.8-7.8l5.4-5.4c0.8-0.8,1.6-1.6,2.4-2.4c2.2-2.2,5.4-2.6,8-1c0.5,0.3,0.9,0.7,1.3,1
			c0.8,0.8,1.6,1.6,2.4,2.4c0.7,0.7,1.4,1.4,2.1,2.1c0,0,0,0,0.1,0.1v0L44,19.1C44.5,19.6,44.5,20.4,44,20.8z"/>
		<path class="st1" d="M13.9,31.1c0,0.2,0,0.5,0,0.7c0,0.2,0,0.4,0,0.6c0,0.4-0.3,0.7-0.7,0.7c-0.4,0-0.6-0.3-0.7-0.7
			c0-0.4,0-0.9,0-1.3c0-0.4,0.3-0.7,0.7-0.7C13.6,30.4,13.9,30.7,13.9,31.1z"/>
		<path class="st1" d="M13.9,35.1c0,0.2,0,0.4,0,0.7c0,0.2,0,0.4,0,0.6c0,0.4-0.3,0.7-0.7,0.7c-0.4,0-0.7-0.3-0.7-0.7
			c0-0.4,0-0.9,0-1.3c0-0.4,0.3-0.7,0.7-0.7C13.6,34.4,13.9,34.7,13.9,35.1z"/>
		<path class="st1" d="M18.9,25.4c0-0.4,0.3-0.7,0.7-0.7c0.4,0,0.7,0.3,0.7,0.7c0,0.4,0,0.9,0,1.3c0,0.4-0.3,0.7-0.7,0.7
			c-0.4,0-0.6-0.3-0.7-0.7c0-0.2,0-0.5,0-0.7C18.9,25.8,18.8,25.6,18.9,25.4z"/>
		<path class="st1" d="M18.9,22.7c0-0.4,0-0.9,0-1.3c0-0.4,0.3-0.7,0.7-0.7c0.4,0,0.7,0.3,0.7,0.7c0,0.2,0,0.4,0,0.6
			c0,0.2,0,0.4,0,0.7c0,0.4-0.3,0.7-0.7,0.7C19.2,23.4,18.9,23.1,18.9,22.7z"/>
		<path class="st1" d="M18.9,29.3c0-0.4,0.3-0.7,0.7-0.7c0.4,0,0.6,0.3,0.7,0.7c0,0.2,0,0.4,0,0.7c0,0.2,0,0.4,0,0.7
			c0,0.4-0.3,0.7-0.7,0.7c-0.4,0-0.7-0.3-0.7-0.7C18.8,30.2,18.8,29.8,18.9,29.3z"/>
		<path class="st1" d="M18.9,33.3c0-0.4,0.3-0.7,0.7-0.7c0.4,0,0.7,0.3,0.7,0.7c0,0.2,0,0.5,0,0.7c0,0.2,0,0.4,0,0.6
			c0,0.4-0.3,0.7-0.7,0.7c-0.4,0-0.6-0.3-0.7-0.7C18.8,34.2,18.8,33.8,18.9,33.3z"/>
		<path class="st1" d="M22.8,34c0,0.2,0,0.4,0,0.7c0,0.4-0.3,0.7-0.7,0.7c-0.4,0-0.7-0.3-0.7-0.7c0-0.4,0-0.9,0-1.3
			c0-0.4,0.3-0.7,0.7-0.7c0.4,0,0.6,0.3,0.7,0.6C22.8,33.5,22.8,33.8,22.8,34z"/>
		<path class="st1" d="M22.8,30c0,0.2,0,0.4,0,0.6c0,0.4-0.3,0.7-0.7,0.7c-0.4,0-0.7-0.3-0.7-0.7c0-0.4,0-0.9,0-1.3
			c0-0.4,0.3-0.7,0.7-0.7c0.4,0,0.6,0.3,0.7,0.7C22.8,29.6,22.8,29.8,22.8,30z"/>
		<path class="st1" d="M21.5,25.4c0-0.4,0.3-0.7,0.7-0.7c0.4,0,0.7,0.3,0.7,0.7c0,0.4,0,0.9,0,1.3c0,0.4-0.3,0.7-0.7,0.7
			c-0.4,0-0.7-0.3-0.7-0.7c0-0.2,0-0.4,0-0.6C21.5,25.8,21.5,25.6,21.5,25.4z"/>
		<path class="st1" d="M22.8,22.1c0,0.2,0,0.4,0,0.6c0,0.4-0.3,0.7-0.7,0.7c-0.4,0-0.6-0.3-0.7-0.7c0-0.4,0-0.9,0-1.3
			c0-0.4,0.3-0.7,0.7-0.7c0.4,0,0.7,0.3,0.7,0.7C22.8,21.6,22.8,21.8,22.8,22.1z"/>
		<path class="st1" d="M24.8,35.3c-0.4,0-0.6-0.3-0.7-0.7c0-0.2,0-0.4,0-0.7c0-0.2,0-0.4,0-0.7c0-0.4,0.3-0.7,0.7-0.7
			c0.4,0,0.7,0.3,0.7,0.7c0,0.4,0,0.9,0,1.3C25.5,35,25.2,35.3,24.8,35.3z"/>
		<path class="st1" d="M24.2,25.4c0-0.4,0.3-0.7,0.7-0.7c0.4,0,0.7,0.3,0.7,0.7c0,0.4,0,0.9,0,1.3c0,0.4-0.3,0.7-0.7,0.7
			c-0.4,0-0.6-0.3-0.7-0.7c0-0.2,0-0.4,0-0.7C24.2,25.8,24.2,25.6,24.2,25.4z"/>
		<path class="st1" d="M24.2,22.7c0-0.2,0-0.4,0-0.7c0-0.2,0-0.4,0-0.7c0-0.4,0.3-0.7,0.7-0.7c0.4,0,0.7,0.3,0.7,0.7
			c0,0.5,0,0.9,0,1.3c0,0.4-0.3,0.7-0.7,0.7C24.5,23.4,24.2,23.1,24.2,22.7z"/>
		<path class="st1" d="M25.5,29.4c0,0.2,0,0.4,0,0.6c0,0.2,0,0.4,0,0.7c0,0.4-0.3,0.7-0.7,0.7c-0.4,0-0.7-0.3-0.7-0.7
			c0-0.4,0-0.9,0-1.3c0-0.4,0.3-0.7,0.7-0.7C25.2,28.7,25.5,29,25.5,29.4z"/>
		<path class="st1" d="M25.5,37.4V40h-1.3v-2h-1.3v2h-1.4v-2h-1.3v2h-1.3v-2.6c0-0.5,0.3-0.8,0.8-0.8h5.1
			C25.2,36.6,25.5,36.9,25.5,37.4z"/>
		<path class="st1" d="M31.7,31.1c0,0.2,0,0.5,0,0.7c0,0.2,0,0.4,0,0.6c0,0.4-0.3,0.7-0.7,0.7c-0.4,0-0.7-0.3-0.7-0.7
			c0-0.4,0-0.9,0-1.3c0-0.4,0.3-0.7,0.7-0.7C31.4,30.4,31.7,30.7,31.7,31.1z"/>
		<path class="st1" d="M31.7,35.1c0,0.4,0,0.9,0,1.3c0,0.4-0.3,0.7-0.7,0.7c-0.4,0-0.6-0.3-0.7-0.7c0-0.2,0-0.5,0-0.7
			c0-0.2,0-0.4,0-0.6c0-0.4,0.3-0.7,0.7-0.7C31.4,34.4,31.7,34.7,31.7,35.1z"/>
		<path class="st1" d="M37.7,25.4c0,3.4,0,6.8,0,10.2c0,2.2-1.5,4-3.7,4.4c-0.2,0-0.3,0-0.5,0.1V28.3c-0.2-0.4-0.5-0.5-0.9-0.5
			c-1.2,0-2.5,0-3.7,0h-0.2V40h-1.3c0-6.7,0-13.4,0-20.2c0-0.4-0.1-0.7-0.5-0.9h-9.3c-0.4,0.2-0.5,0.5-0.5,0.9c0,6.7,0,13.4,0,20.2
			h-1.3V27.8h-4.1c-0.5,0-0.8,0.3-0.8,0.8V40c-2.2-0.2-3.8-1.6-4.2-3.8c0-0.3,0-0.5,0-0.8c0-3.3,0-6.7,0-10c0-0.5,0.2-0.9,0.5-1.3
			c4.6-4.6,9.3-9.3,13.9-13.9c0.7-0.7,1.4-0.7,2.1,0c4.6,4.6,9.3,9.3,13.9,13.9C37.5,24.4,37.7,24.8,37.7,25.4z"/>
	</g>
</g>
</svg>
