<svg width="130" height="28" viewBox="0 0 130 28" fill="none" xmlns="http://www.w3.org/2000/svg">
    <g clip-path="url(#clip0_240_3558)">
        <path
            d="M47.6802 22.125C50.162 25.2839 52.5277 25.2171 54.4369 24.3605C56.1811 23.577 57.1083 21.4564 56.8006 19.0977C56.7537 19.1186 56.6804 19.1269 56.6681 19.1583C55.5658 21.9599 52.7315 22.3569 50.5064 21.7406C48.5299 21.1953 47.5192 19.7286 47.1993 17.7355C47.0886 16.9958 47.0348 16.2483 47.0384 15.5C47.02 12.4811 47.0384 9.4642 47.0384 6.36795H50.5614C50.5736 6.63955 50.5981 6.93204 50.5981 7.22454C50.5981 9.69402 50.5981 12.1614 50.5981 14.6288C50.599 15.1547 50.6378 15.6799 50.7142 16.1999C51.0076 18.1722 52.1854 18.9347 54.1007 18.4166C55.6554 17.9987 56.6905 16.5467 56.7904 14.3781C56.8963 12.0799 56.8678 9.78176 56.8963 7.4836C56.8963 7.13052 56.8963 6.77744 56.8963 6.36377H60.3277C60.3686 6.49201 60.3959 6.62439 60.4092 6.75863C60.4092 11.2505 60.5152 15.7424 60.3644 20.2321C60.1851 25.5305 55.7736 28.7855 50.6898 27.5445C49.0006 27.1266 47.454 26.4351 46.2335 25.1126C45.8749 24.724 45.8056 24.419 46.1948 23.9886C46.7123 23.4203 47.1586 22.7915 47.6802 22.125Z"
            fill="white" />
        <path
            d="M26.4422 6.52265V8.82081C25.352 7.1912 23.777 6.16748 22.0266 6.16748C18.7359 6.16748 16.0707 9.7756 16.0707 14.2278C16.0707 18.6799 18.7461 22.286 22.0266 22.286C23.777 22.286 25.352 21.2602 26.4422 19.6305V22.286H30.0222V6.52265H26.4422ZM23.0516 18.9766C21.1077 18.9766 19.5326 16.8498 19.5326 14.2236C19.5326 11.5974 21.1077 9.47057 23.0516 9.47057C24.9954 9.47057 26.5726 11.5995 26.5726 14.2236C26.5726 16.8477 24.9975 18.9766 23.0516 18.9766Z"
            fill="white" />
        <path
            d="M88.9298 6.52265V8.82081C87.8397 7.1912 86.2646 6.16748 84.5122 6.16748C81.2235 6.16748 78.5563 9.7756 78.5563 14.2278C78.5563 18.6799 81.2235 22.2901 84.5122 22.2901C86.2646 22.2901 87.8397 21.2643 88.9298 19.6347V22.2901H92.5078V6.52265H88.9298ZM85.5392 18.9766C83.5953 18.9766 82.0182 16.8498 82.0182 14.2236C82.0182 11.5974 83.5953 9.47057 85.5392 9.47057C87.4831 9.47057 89.0602 11.5995 89.0602 14.2236C89.0602 16.8477 87.4831 18.9766 85.5392 18.9766Z"
            fill="white" />
        <path
            d="M126.422 6.52265V8.82081C125.332 7.1912 123.757 6.16748 122.004 6.16748C118.716 6.16748 116.048 9.7756 116.048 14.2278C116.048 18.6799 118.716 22.2901 122.004 22.2901C123.757 22.2901 125.332 21.2643 126.422 19.6347V22.2901H130V6.52265H126.422ZM123.031 18.9766C121.087 18.9766 119.51 16.8498 119.51 14.2236C119.51 11.5974 121.087 9.47057 123.031 9.47057C124.975 9.47057 126.552 11.5995 126.552 14.2236C126.552 16.8477 124.975 18.9766 123.031 18.9766Z"
            fill="white" />
        <path d="M98.8366 6.16309H95.1608V22.2858H98.8366V6.16309Z" fill="white" />
        <path
            d="M97.0008 4.65065C98.2533 4.65065 99.2686 3.60957 99.2686 2.32532C99.2686 1.04108 98.2533 0 97.0008 0C95.7483 0 94.7329 1.04108 94.7329 2.32532C94.7329 3.60957 95.7483 4.65065 97.0008 4.65065Z"
            fill="#26B15D" />
        <path
            d="M71.1454 6.42216C69.4318 6.42216 67.8852 7.34351 66.7768 8.8206V6.16309H63.1783V27.9977H66.7768V19.9061C67.8852 21.3853 69.4257 22.3046 71.1454 22.3046C74.5136 22.3046 77.2461 18.7528 77.2461 14.3654C77.2461 9.97804 74.5136 6.42216 71.1454 6.42216ZM70.1266 18.9764C68.6086 18.9764 67.3106 17.7772 66.7829 16.0786V12.6899C67.3106 10.9913 68.6167 9.7921 70.1266 9.7921C72.1153 9.7921 73.7251 11.8479 73.7251 14.3884C73.7251 16.9289 72.1092 18.9764 70.1205 18.9764H70.1266Z"
            fill="white" />
        <path
            d="M42.4313 11.8793L44.9926 10.5045C44.9539 9.28441 44.1653 8.1813 43.1587 7.53155C42.1521 6.88179 40.95 6.62272 39.7641 6.49737C37.8528 6.28844 35.8009 6.4535 34.2136 7.56288C32.6263 8.67227 31.7094 10.9579 32.5957 12.7087C33.3211 14.1419 34.9594 14.8105 36.5059 15.1176C38.0525 15.4247 39.6805 15.5041 41.0763 16.252C41.4206 16.438 41.7793 16.7138 41.8159 17.1128C41.8526 17.5118 41.5796 17.8231 41.2964 18.0655C40.7289 18.5514 40.0494 18.8799 39.3227 19.0195C38.5961 19.1591 37.8466 19.1051 37.1461 18.8628C36.4456 18.6204 35.8175 18.1978 35.3219 17.6353C34.8263 17.0729 34.4798 16.3894 34.3155 15.6503L31.4832 17.1671C30.8862 17.493 33.097 20.301 33.3802 20.5475C35.4749 22.4278 38.6393 22.7141 41.2189 21.8366C43.0344 21.2202 44.7521 19.8225 45.1148 17.8983C45.225 17.2887 45.1968 16.6612 45.0325 16.0646C44.8682 15.4679 44.5722 14.9179 44.1674 14.4574C43.2932 13.4796 42.0014 13.0116 40.7319 12.7505C39.4625 12.4893 38.1543 12.3953 36.9216 11.9921C36.3877 11.8166 35.7826 11.4489 35.809 10.8743C35.8335 10.3416 36.3938 10.0261 36.889 9.86105C37.9343 9.51214 39.0733 9.3659 40.1308 9.67093C41.1884 9.97595 42.1379 10.797 42.4313 11.8793Z"
            fill="white" />
        <path
            d="M111.661 11.8793L114.223 10.5045C114.184 9.28441 113.393 8.1813 112.389 7.53155C111.384 6.88179 110.18 6.62272 108.994 6.49737C107.083 6.28844 105.031 6.4535 103.444 7.56288C101.856 8.67227 100.939 10.9579 101.826 12.7087C102.551 14.1419 104.189 14.8105 105.734 15.1176C107.278 15.4247 108.911 15.5041 110.306 16.252C110.651 16.438 111.009 16.7138 111.046 17.1128C111.083 17.5118 110.81 17.8231 110.526 18.0655C109.959 18.5514 109.279 18.8799 108.553 19.0195C107.826 19.1591 107.077 19.1051 106.376 18.8628C105.676 18.6204 105.048 18.1978 104.552 17.6353C104.056 17.0729 103.71 16.3894 103.546 15.6503L100.713 17.1671C100.116 17.493 102.327 20.301 102.61 20.5475C104.705 22.4278 107.869 22.7141 110.449 21.8366C112.265 21.2202 113.982 19.8225 114.345 17.8983C114.454 17.2887 114.426 16.6614 114.262 16.0648C114.097 15.4682 113.802 14.9183 113.397 14.4574C112.523 13.4796 111.231 13.0116 109.962 12.7505C108.693 12.4893 107.384 12.3953 106.152 11.9921C105.618 11.8166 105.011 11.4489 105.039 10.8743C105.064 10.3416 105.624 10.0261 106.119 9.86105C107.164 9.51214 108.303 9.3659 109.361 9.67093C110.418 9.97595 111.372 10.797 111.661 11.8793Z"
            fill="white" />
        <path
            d="M13.0204 8.91056C13.0204 8.91056 10.3592 4.73208 4.57036 6.82132C4.57036 6.82132 1.44059 7.70506 0.0325928 12.8383C0.0325928 12.8383 2.92805 17.5705 9.96801 16.0474C9.96801 16.0495 15.9912 14.445 13.0204 8.91056ZM9.22429 13.089C8.04858 13.6594 6.23918 13.5069 5.01253 13.1789C4.92491 13.1559 3.32334 12.5772 3.3967 12.4351C4.5724 10.2059 7.64921 8.15007 9.79482 10.4378C10.0156 10.6571 10.177 10.9314 10.2635 11.2338C10.4469 11.988 9.90689 12.7631 9.22429 13.0932V13.089Z"
            fill="white" />
        <path
            d="M0.0326268 14.3779C0.0326268 14.3779 -0.670352 19.9792 4.4135 21.824C9.49736 23.6688 13.4891 20.2988 14.6627 18.2138L11.7673 16.4505C11.7673 16.4505 9.4994 21.2557 3.00551 18.1344C3.00551 18.1344 0.658175 16.7158 0.0326268 14.3779Z"
            fill="#26B15D" />
    </g>
    <defs>
        <clipPath id="clip0_240_3558">
            <rect width="130" height="28" fill="white" />
        </clipPath>
    </defs>
</svg>