<svg width="17" height="27" viewBox="0 0 17 27" fill="none" xmlns="http://www.w3.org/2000/svg">
<path d="M16.0417 0.73779C16.0417 0.544403 15.9648 0.358936 15.8281 0.222191C15.6914 0.0854457 15.5059 0.00862286 15.3125 0.00862286H11.6667C9.83081 -0.0828279 8.03337 0.556069 6.6671 1.78572C5.30082 3.01537 4.47677 4.7358 4.375 6.57112V10.5086H0.729167C0.53578 10.5086 0.350313 10.5854 0.213568 10.7222C0.0768228 10.8589 0 11.0444 0 11.2378V15.0295C0 15.2228 0.0768228 15.4083 0.213568 15.5451C0.350313 15.6818 0.53578 15.7586 0.729167 15.7586H4.375V25.5295C4.375 25.7228 4.45182 25.9083 4.58857 26.0451C4.72531 26.1818 4.91078 26.2586 5.10417 26.2586H9.47917C9.67255 26.2586 9.85802 26.1818 9.99477 26.0451C10.1315 25.9083 10.2083 25.7228 10.2083 25.5295V15.7586H14.0292C14.1913 15.761 14.3496 15.7092 14.479 15.6114C14.6085 15.5137 14.7016 15.3756 14.7438 15.219L15.7938 11.4274C15.8228 11.3196 15.8267 11.2067 15.8052 11.0972C15.7836 10.9877 15.7373 10.8846 15.6697 10.7959C15.602 10.7071 15.515 10.6351 15.4151 10.5853C15.3153 10.5355 15.2053 10.5092 15.0938 10.5086H10.2083V6.57112C10.2446 6.21015 10.4141 5.87566 10.6838 5.63297C10.9534 5.39027 11.3039 5.2568 11.6667 5.25862H15.3125C15.5059 5.25862 15.6914 5.1818 15.8281 5.04505C15.9648 4.90831 16.0417 4.72284 16.0417 4.52946V0.73779Z" fill="#FFD624"/>
</svg>
