<svg width="285" height="41" viewBox="0 0 285 41" fill="none" xmlns="http://www.w3.org/2000/svg">
    <path
        d="M68.6925 34.5315V32.0815H68.5625C68.2325 32.8715 65.9925 34.9415 62.1725 34.9415C57.2725 34.9415 51.8825 31.2515 51.8825 23.7315C51.8825 16.2115 57.2825 12.5215 62.1725 12.5215C65.9925 12.5215 68.2325 14.6015 68.5625 15.3815H68.6925V5.06149H75.1225V34.5315H68.6925ZM63.5125 29.2215C66.3325 29.2215 68.8625 27.2715 68.8625 23.7415C68.8625 20.2115 66.3325 18.2615 63.5125 18.2615C60.7725 18.2615 58.2425 20.2515 58.2425 23.7415C58.2425 27.2315 60.7725 29.2215 63.5125 29.2215Z"
        fill="white" />
    <path
        d="M77.9925 23.7815C77.9925 16.4815 83.4325 12.5315 88.9925 12.5315C94.4725 12.5315 100.902 16.3515 99.5325 26.2315H84.1825C85.0525 28.5515 87.2125 29.7215 90.0725 29.7215C91.9825 29.7215 93.6825 29.2615 95.2625 28.0615L98.1725 31.0915C96.3925 33.3315 93.3125 34.9515 89.3725 34.9515C83.3925 34.9515 77.9925 30.8815 77.9925 23.7815ZM93.8925 21.6215C93.4325 19.1315 91.2325 17.9315 89.0825 17.9315C86.9325 17.9315 84.7625 19.0515 84.0625 21.6215H93.8925Z"
        fill="white" />
    <path
        d="M101.572 23.7415C101.572 16.2315 106.972 12.5315 111.862 12.5315C115.682 12.5315 117.922 14.6115 118.252 15.3915H118.373V12.9415H124.803V34.5215H118.373V32.0715H118.252C117.922 32.8615 115.682 34.9315 111.862 34.9315C106.972 34.9515 101.572 31.2515 101.572 23.7415ZM113.193 29.2215C116.013 29.2215 118.542 27.2715 118.542 23.7415C118.542 20.2115 116.013 18.2615 113.193 18.2615C110.453 18.2615 107.922 20.2515 107.922 23.7415C107.922 27.2315 110.453 29.2215 113.193 29.2215Z"
        fill="white" />
    <path d="M128.722 5.06149H135.152V34.5315H128.722V5.06149Z" fill="white" />
    <path
        d="M137.812 28.8015L142.922 27.4315C143.252 28.4715 144.002 29.9215 146.032 29.9215C147.192 29.9215 148.272 29.3415 148.272 28.1415C148.272 27.4315 147.862 26.7715 146.442 26.3115L143.542 25.2315C139.972 23.9415 138.432 21.6215 138.432 18.9215C138.432 14.8915 142.042 12.5315 146.272 12.5315C150.342 12.5315 153.282 14.8115 154.032 18.3015L149.012 19.5515C148.472 17.8915 147.392 17.5215 146.522 17.5215C145.272 17.5215 144.652 18.2715 144.652 19.0115C144.652 19.7215 145.072 20.3815 146.522 20.8415L149.222 21.8415C151.542 22.6315 154.622 24.2515 154.622 28.1515C154.622 32.5115 150.932 34.9615 146.112 34.9615C141.752 34.9515 138.482 32.9115 137.812 28.8015Z"
        fill="white" />
    <path
        d="M156.452 23.7415C156.452 16.2315 161.853 12.5315 166.743 12.5315C170.562 12.5315 172.802 14.6115 173.132 15.3915H173.262V12.9415H179.692V34.5215H173.262V32.0715H173.132C172.802 32.8615 170.562 34.9315 166.743 34.9315C161.843 34.9515 156.452 31.2515 156.452 23.7415ZM168.073 29.2215C170.893 29.2215 173.422 27.2715 173.422 23.7415C173.422 20.2115 170.893 18.2615 168.073 18.2615C165.333 18.2615 162.802 20.2515 162.802 23.7415C162.802 27.2315 165.333 29.2215 168.073 29.2215Z"
        fill="white" />
    <path
        d="M190.033 5.06149V15.3915H190.163C190.493 14.6015 192.733 12.5315 196.553 12.5315C201.453 12.5315 206.842 16.2215 206.842 23.7415C206.842 31.2615 201.453 34.9515 196.553 34.9515C192.733 34.9515 190.493 32.8715 190.163 32.0915H190.033V34.5415H183.603V5.06149H190.033ZM195.223 29.2215C197.963 29.2215 200.493 27.2315 200.493 23.7415C200.493 20.2515 197.963 18.2615 195.223 18.2615C192.403 18.2615 189.872 20.2115 189.872 23.7415C189.872 27.2715 192.403 29.2215 195.223 29.2215Z"
        fill="white" />
    <path
        d="M208.672 23.7415C208.672 16.2315 214.072 12.5315 218.962 12.5315C222.782 12.5315 225.022 14.6115 225.352 15.3915H225.482V12.9415H231.912V34.5215H225.482V32.0715H225.352C225.022 32.8615 222.782 34.9315 218.962 34.9315C214.072 34.9515 208.672 31.2515 208.672 23.7415ZM220.292 29.2215C223.112 29.2215 225.642 27.2715 225.642 23.7415C225.642 20.2115 223.112 18.2615 220.292 18.2615C217.552 18.2615 215.022 20.2515 215.022 23.7415C215.022 27.2315 217.552 29.2215 220.292 29.2215Z"
        fill="white" />
    <path
        d="M234.783 23.7415C234.783 16.2315 240.183 12.5315 245.073 12.5315C248.893 12.5315 251.133 14.6115 251.463 15.3915H251.583V12.9415H258.013V34.5215H251.583V32.0715H251.463C251.133 32.8615 248.893 34.9315 245.073 34.9315C240.183 34.9515 234.783 31.2515 234.783 23.7415ZM246.402 29.2215C249.222 29.2215 251.753 27.2715 251.753 23.7415C251.753 20.2115 249.222 18.2615 246.402 18.2615C243.662 18.2615 241.133 20.2515 241.133 23.7415C241.133 27.2315 243.662 29.2215 246.402 29.2215Z"
        fill="white" />
    <path
        d="M277.703 34.5315V32.0815H277.573C277.243 32.8715 275.002 34.9415 271.182 34.9415C266.282 34.9415 260.893 31.2515 260.893 23.7315C260.893 16.2115 266.292 12.5215 271.182 12.5215C275.002 12.5215 277.243 14.6015 277.573 15.3815H277.703V5.06149H284.133V34.5315H277.703ZM272.513 29.2215C275.333 29.2215 277.862 27.2715 277.862 23.7415C277.862 20.2115 275.333 18.2615 272.513 18.2615C269.773 18.2615 267.242 20.2515 267.242 23.7415C267.242 27.2315 269.773 29.2215 272.513 29.2215Z"
        fill="white" />
    <path
        d="M44.0325 20.8515L42.2225 22.6615C41.7625 23.1315 41.0025 23.1315 40.5325 22.6615L39.4225 21.5515L39.1725 21.3015C33.9325 16.0615 28.6925 10.8315 23.4525 5.59149C22.5225 4.66149 21.8025 4.67149 20.8725 5.60149L18.5825 7.89149L18.6025 7.91149L3.8625 22.6515C3.3925 23.1215 2.6325 23.1215 2.1625 22.6515L0.3525 20.8415C-0.1175 20.3715 -0.1175 19.6215 0.3525 19.1515L1.5525 17.9515L1.6225 17.8815C1.7325 17.7615 1.8425 17.6515 1.9625 17.5315C4.5625 14.9415 7.1525 12.3515 9.7525 9.75149L15.1125 4.39149C15.9225 3.58149 16.7325 2.78149 17.5425 1.97149C19.7225 -0.208507 22.9325 -0.628507 25.5425 0.951493C26.0025 1.24149 26.4325 1.62149 26.8325 2.01149C27.6525 2.81149 28.4625 3.62149 29.2725 4.43149C29.9625 5.12149 30.6525 5.82149 31.3425 6.51149C31.3625 6.53149 31.3925 6.54149 31.4525 6.59149V6.57149L44.0425 19.1615C44.5025 19.6215 44.5025 20.3815 44.0325 20.8515Z"
        fill="#FFD624" />
    <path
        d="M13.9425 31.1115C13.9525 31.3415 13.9425 31.5715 13.9425 31.7915C13.9425 32.0015 13.9425 32.2215 13.9425 32.4315C13.9325 32.8215 13.6425 33.1115 13.2725 33.1015C12.9125 33.1015 12.6225 32.8115 12.6225 32.4315C12.6125 31.9915 12.6125 31.5515 12.6225 31.1115C12.6325 30.7315 12.9225 30.4515 13.2825 30.4515C13.6425 30.4515 13.9325 30.7415 13.9425 31.1115Z"
        fill="#FFD624" />
    <path
        d="M13.9425 35.1015C13.9525 35.3215 13.9425 35.5415 13.9425 35.7615C13.9425 35.9815 13.9425 36.1915 13.9425 36.4015C13.9425 36.7915 13.6525 37.0815 13.2925 37.0815C12.9225 37.0815 12.6325 36.7915 12.6225 36.4015C12.6125 35.9615 12.6125 35.5315 12.6225 35.0915C12.6225 34.7115 12.9225 34.4115 13.2925 34.4215C13.6525 34.4415 13.9325 34.7215 13.9425 35.1015Z"
        fill="#FFD624" />
    <path
        d="M18.8525 25.3615C18.8625 24.9815 19.1525 24.7015 19.5125 24.7015C19.8725 24.7015 20.1725 24.9815 20.1725 25.3515C20.1825 25.8015 20.1825 26.2515 20.1725 26.6915C20.1725 27.0715 19.8725 27.3515 19.5125 27.3415C19.1525 27.3415 18.8625 27.0515 18.8525 26.6715C18.8525 26.4515 18.8525 26.2215 18.8525 25.9915C18.8525 25.7915 18.8525 25.5815 18.8525 25.3615Z"
        fill="#FFD624" />
    <path
        d="M18.8525 22.7015C18.8525 22.2715 18.8525 21.8315 18.8525 21.4015C18.8625 21.0115 19.1525 20.7215 19.5225 20.7215C19.8925 20.7215 20.1725 21.0115 20.1825 21.4015C20.1825 21.6115 20.1825 21.8315 20.1825 22.0415C20.1825 22.2615 20.1825 22.4815 20.1825 22.7015C20.1725 23.0815 19.8825 23.3615 19.5325 23.3715C19.1525 23.3815 18.8625 23.0915 18.8525 22.7015Z"
        fill="#FFD624" />
    <path
        d="M18.8525 29.3615C18.8625 28.9815 19.1525 28.6815 19.5225 28.6915C19.8825 28.6915 20.1725 28.9815 20.1825 29.3515C20.1825 29.5715 20.1825 29.7915 20.1825 30.0115C20.1825 30.2315 20.1825 30.4515 20.1825 30.6715C20.1725 31.0515 19.8825 31.3315 19.5225 31.3415C19.1525 31.3415 18.8625 31.0515 18.8525 30.6615C18.8525 30.2315 18.8525 29.7915 18.8525 29.3615Z"
        fill="#FFD624" />
    <path
        d="M18.8525 33.3315C18.8625 32.9515 19.1525 32.6715 19.5125 32.6715C19.8725 32.6715 20.1625 32.9515 20.1825 33.3215C20.1825 33.5515 20.1825 33.7815 20.1825 34.0015C20.1825 34.2115 20.1825 34.4315 20.1825 34.6415C20.1725 35.0315 19.8825 35.3215 19.5125 35.3215C19.1525 35.3215 18.8625 35.0315 18.8625 34.6515C18.8525 34.2115 18.8525 33.7615 18.8525 33.3315Z"
        fill="#FFD624" />
    <path
        d="M22.8325 33.9915C22.8325 34.2115 22.8425 34.4315 22.8325 34.6515C22.8225 35.0315 22.5325 35.3115 22.1725 35.3115C21.8125 35.3115 21.5125 35.0315 21.5125 34.6515C21.5025 34.2015 21.5025 33.7515 21.5125 33.3115C21.5225 32.9415 21.8225 32.6615 22.1825 32.6615C22.5325 32.6615 22.8225 32.9415 22.8325 33.3115C22.8425 33.5415 22.8325 33.7615 22.8325 33.9915Z"
        fill="#FFD624" />
    <path
        d="M22.8325 30.0115C22.8325 30.2215 22.8325 30.4415 22.8325 30.6515C22.8225 31.0415 22.5425 31.3315 22.1725 31.3415C21.8025 31.3415 21.5125 31.0515 21.5125 30.6615C21.5025 30.2315 21.5025 29.7915 21.5125 29.3615C21.5125 28.9715 21.8125 28.6815 22.1825 28.6915C22.5425 28.6915 22.8325 28.9815 22.8325 29.3515C22.8425 29.5715 22.8325 29.7915 22.8325 30.0115Z"
        fill="#FFD624" />
    <path
        d="M21.5125 25.3715C21.5225 24.9915 21.8025 24.7115 22.1625 24.7015C22.5325 24.7015 22.8325 24.9915 22.8325 25.3715C22.8425 25.8115 22.8325 26.2415 22.8325 26.6715C22.8325 27.0615 22.5325 27.3515 22.1725 27.3515C21.8025 27.3515 21.5225 27.0615 21.5125 26.6715C21.5125 26.4615 21.5125 26.2415 21.5125 26.0315C21.5025 25.8115 21.5025 25.5915 21.5125 25.3715Z"
        fill="#FFD624" />
    <path
        d="M22.8325 22.0615C22.8325 22.2715 22.8325 22.4915 22.8325 22.7015C22.8225 23.0915 22.5325 23.3815 22.1625 23.3815C21.8025 23.3815 21.5125 23.0915 21.5125 22.7115C21.5025 22.2715 21.5025 21.8315 21.5125 21.3815C21.5125 21.0115 21.8125 20.7215 22.1725 20.7215C22.5325 20.7215 22.8225 21.0015 22.8325 21.3715C22.8425 21.6115 22.8325 21.8315 22.8325 22.0615Z"
        fill="#FFD624" />
    <path
        d="M24.8125 35.3115C24.4525 35.3115 24.1625 35.0215 24.1625 34.6515C24.1625 34.4315 24.1625 34.2115 24.1625 33.9915C24.1625 33.7715 24.1625 33.5515 24.1625 33.3315C24.1725 32.9515 24.4625 32.6715 24.8125 32.6715C25.1725 32.6715 25.4725 32.9515 25.4825 33.3215C25.4925 33.7715 25.4925 34.2215 25.4825 34.6615C25.4725 35.0415 25.1825 35.3215 24.8125 35.3115Z"
        fill="#FFD624" />
    <path
        d="M24.1625 25.3715C24.1725 24.9915 24.4625 24.7115 24.8125 24.7015C25.1725 24.7015 25.4725 24.9815 25.4825 25.3515C25.4925 25.8015 25.4925 26.2515 25.4825 26.6915C25.4725 27.0715 25.1825 27.3515 24.8125 27.3415C24.4525 27.3415 24.1625 27.0515 24.1625 26.6815C24.1625 26.4615 24.1625 26.2415 24.1625 26.0215C24.1625 25.8115 24.1625 25.5915 24.1625 25.3715Z"
        fill="#FFD624" />
    <path
        d="M24.1625 22.7115C24.1625 22.4915 24.1625 22.2715 24.1625 22.0515C24.1625 21.8315 24.1625 21.6115 24.1625 21.3915C24.1725 21.0115 24.4625 20.7315 24.8125 20.7315C25.1725 20.7315 25.4725 21.0115 25.4825 21.3815C25.4925 21.8315 25.4925 22.2815 25.4825 22.7315C25.4725 23.1015 25.1725 23.3815 24.8125 23.3815C24.4625 23.3715 24.1725 23.0815 24.1625 22.7115Z"
        fill="#FFD624" />
    <path
        d="M25.4925 29.3715C25.4925 29.5815 25.4925 29.8015 25.4925 30.0115C25.4925 30.2315 25.4925 30.4515 25.4925 30.6715C25.4825 31.0515 25.2025 31.3315 24.8425 31.3415C24.4725 31.3415 24.1825 31.0515 24.1725 30.6615C24.1725 30.2215 24.1725 29.7915 24.1725 29.3615C24.1725 28.9715 24.4725 28.6815 24.8425 28.6815C25.1925 28.6815 25.4825 28.9815 25.4925 29.3715Z"
        fill="#FFD624" />
    <path
        d="M25.4925 37.4315V40.0015H24.1525V37.9915H22.8525V40.0015H21.5025V37.9915H20.2025V40.0015H18.8625V37.4315C18.8625 36.9015 19.1125 36.6415 19.6525 36.6415H24.7125C25.2325 36.6415 25.4925 36.8915 25.4925 37.4315Z"
        fill="#FFD624" />
    <path
        d="M31.7225 31.1215C31.7225 31.3515 31.7225 31.5815 31.7225 31.8015C31.7225 32.0115 31.7225 32.2115 31.7225 32.4215C31.7125 32.8115 31.4325 33.1015 31.0625 33.1015C30.6925 33.1015 30.4025 32.8115 30.3925 32.4215C30.3925 31.9815 30.3925 31.5515 30.3925 31.1215C30.4025 30.7315 30.6925 30.4415 31.0625 30.4415C31.4225 30.4515 31.7125 30.7415 31.7225 31.1215Z"
        fill="#FFD624" />
    <path
        d="M31.7225 35.0915C31.7325 35.5415 31.7325 35.9915 31.7225 36.4315C31.7125 36.8015 31.4125 37.0915 31.0525 37.0815C30.6925 37.0815 30.4025 36.7915 30.3925 36.4115C30.3925 36.1915 30.3925 35.9615 30.3925 35.7315C30.3925 35.5115 30.3925 35.3015 30.3925 35.0915C30.4025 34.7115 30.6925 34.4315 31.0525 34.4315C31.4125 34.4315 31.7125 34.7115 31.7225 35.0915Z"
        fill="#FFD624" />
    <path
        d="M37.7025 25.3815C37.6925 28.7815 37.7025 32.1715 37.6925 35.5715C37.6825 37.7515 36.1525 39.5515 34.0225 39.9415C33.8525 39.9715 33.6725 39.9915 33.5025 39.9915V28.2815C33.3225 27.9015 33.0225 27.7815 32.6125 27.7915C31.3625 27.8115 30.1225 27.8015 28.8825 27.8015H28.6525V40.0015H27.3025C27.3025 33.2815 27.3025 26.5615 27.3025 19.8515C27.3025 19.4415 27.1925 19.1315 26.8125 18.9615H17.5225C17.1425 19.1315 17.0325 19.4415 17.0325 19.8515C17.0425 26.5715 17.0425 33.2815 17.0425 40.0015H15.7025V27.8015H11.6125C11.0925 27.8015 10.8425 28.0615 10.8425 28.5715V39.9815C8.6525 39.8215 7.0425 38.3515 6.6825 36.1615C6.6425 35.9015 6.6425 35.6315 6.6425 35.3715C6.6425 32.0515 6.6425 28.7215 6.6325 25.3915C6.6325 24.8615 6.8025 24.4615 7.1725 24.0915C11.8225 19.4515 16.4625 14.8115 21.1125 10.1615C21.8525 9.43149 22.4725 9.42149 23.2025 10.1615C27.8525 14.8015 32.4925 19.4515 37.1425 24.0815C37.5225 24.4515 37.7025 24.8515 37.7025 25.3815Z"
        fill="#FFD624" />
</svg>