<svg width="285" height="41" viewBox="0 0 285 41" fill="none" xmlns="http://www.w3.org/2000/svg">
    <path
        d="M68.6928 34.5315V32.0815H68.5628C68.2328 32.8715 65.9928 34.9415 62.1728 34.9415C57.2728 34.9415 51.8828 31.2515 51.8828 23.7315C51.8828 16.2115 57.2828 12.5215 62.1728 12.5215C65.9928 12.5215 68.2328 14.6015 68.5628 15.3815H68.6928V5.06149H75.1228V34.5315H68.6928ZM63.5128 29.2215C66.3328 29.2215 68.8628 27.2715 68.8628 23.7415C68.8628 20.2115 66.3328 18.2615 63.5128 18.2615C60.7728 18.2615 58.2428 20.2515 58.2428 23.7415C58.2428 27.2315 60.7728 29.2215 63.5128 29.2215Z"
        fill="#4A6594" />
    <path
        d="M77.9932 23.7815C77.9932 16.4815 83.4332 12.5315 88.9932 12.5315C94.4732 12.5315 100.903 16.3515 99.5332 26.2315H84.1832C85.0532 28.5515 87.2132 29.7215 90.0732 29.7215C91.9832 29.7215 93.6832 29.2615 95.2632 28.0615L98.1732 31.0915C96.3932 33.3315 93.3132 34.9515 89.3732 34.9515C83.3932 34.9515 77.9932 30.8815 77.9932 23.7815ZM93.8932 21.6215C93.4332 19.1315 91.2332 17.9315 89.0832 17.9315C86.9332 17.9315 84.7632 19.0515 84.0632 21.6215H93.8932Z"
        fill="#4A6594" />
    <path
        d="M101.573 23.7415C101.573 16.2315 106.973 12.5315 111.863 12.5315C115.683 12.5315 117.923 14.6115 118.253 15.3915H118.373V12.9415H124.803V34.5215H118.373V32.0715H118.253C117.923 32.8615 115.683 34.9315 111.863 34.9315C106.973 34.9515 101.573 31.2515 101.573 23.7415ZM113.193 29.2215C116.013 29.2215 118.543 27.2715 118.543 23.7415C118.543 20.2115 116.013 18.2615 113.193 18.2615C110.453 18.2615 107.923 20.2515 107.923 23.7415C107.923 27.2315 110.453 29.2215 113.193 29.2215Z"
        fill="#4A6594" />
    <path d="M128.723 5.06149H135.153V34.5315H128.723V5.06149Z" fill="#4A6594" />
    <path
        d="M137.812 28.8015L142.923 27.4315C143.253 28.4715 144.003 29.9215 146.033 29.9215C147.193 29.9215 148.273 29.3415 148.273 28.1415C148.273 27.4315 147.863 26.7715 146.443 26.3115L143.542 25.2315C139.972 23.9415 138.432 21.6215 138.432 18.9215C138.432 14.8915 142.043 12.5315 146.273 12.5315C150.343 12.5315 153.283 14.8115 154.033 18.3015L149.012 19.5515C148.472 17.8915 147.393 17.5215 146.523 17.5215C145.273 17.5215 144.652 18.2715 144.652 19.0115C144.652 19.7215 145.073 20.3815 146.523 20.8415L149.223 21.8415C151.543 22.6315 154.622 24.2515 154.622 28.1515C154.622 32.5115 150.933 34.9615 146.113 34.9615C141.753 34.9515 138.483 32.9115 137.812 28.8015Z"
        fill="#4A6594" />
    <path
        d="M156.453 23.7415C156.453 16.2315 161.853 12.5315 166.743 12.5315C170.563 12.5315 172.803 14.6115 173.133 15.3915H173.263V12.9415H179.693V34.5215H173.263V32.0715H173.133C172.803 32.8615 170.563 34.9315 166.743 34.9315C161.843 34.9515 156.453 31.2515 156.453 23.7415ZM168.073 29.2215C170.893 29.2215 173.423 27.2715 173.423 23.7415C173.423 20.2115 170.893 18.2615 168.073 18.2615C165.333 18.2615 162.803 20.2515 162.803 23.7415C162.803 27.2315 165.333 29.2215 168.073 29.2215Z"
        fill="#4A6594" />
    <path
        d="M190.033 5.06149V15.3915H190.163C190.493 14.6015 192.733 12.5315 196.553 12.5315C201.453 12.5315 206.843 16.2215 206.843 23.7415C206.843 31.2615 201.453 34.9515 196.553 34.9515C192.733 34.9515 190.493 32.8715 190.163 32.0915H190.033V34.5415H183.603V5.06149H190.033ZM195.223 29.2215C197.963 29.2215 200.493 27.2315 200.493 23.7415C200.493 20.2515 197.963 18.2615 195.223 18.2615C192.403 18.2615 189.873 20.2115 189.873 23.7415C189.873 27.2715 192.403 29.2215 195.223 29.2215Z"
        fill="#4A6594" />
    <path
        d="M208.673 23.7415C208.673 16.2315 214.073 12.5315 218.963 12.5315C222.783 12.5315 225.023 14.6115 225.353 15.3915H225.483V12.9415H231.913V34.5215H225.483V32.0715H225.353C225.023 32.8615 222.783 34.9315 218.963 34.9315C214.073 34.9515 208.673 31.2515 208.673 23.7415ZM220.293 29.2215C223.113 29.2215 225.643 27.2715 225.643 23.7415C225.643 20.2115 223.113 18.2615 220.293 18.2615C217.553 18.2615 215.023 20.2515 215.023 23.7415C215.023 27.2315 217.553 29.2215 220.293 29.2215Z"
        fill="#4A6594" />
    <path
        d="M234.783 23.7415C234.783 16.2315 240.183 12.5315 245.073 12.5315C248.893 12.5315 251.133 14.6115 251.463 15.3915H251.583V12.9415H258.013V34.5215H251.583V32.0715H251.463C251.133 32.8615 248.893 34.9315 245.073 34.9315C240.183 34.9515 234.783 31.2515 234.783 23.7415ZM246.403 29.2215C249.223 29.2215 251.753 27.2715 251.753 23.7415C251.753 20.2115 249.223 18.2615 246.403 18.2615C243.663 18.2615 241.133 20.2515 241.133 23.7415C241.133 27.2315 243.663 29.2215 246.403 29.2215Z"
        fill="#4A6594" />
    <path
        d="M277.703 34.5315V32.0815H277.573C277.243 32.8715 275.003 34.9415 271.183 34.9415C266.283 34.9415 260.893 31.2515 260.893 23.7315C260.893 16.2115 266.293 12.5215 271.183 12.5215C275.003 12.5215 277.243 14.6015 277.573 15.3815H277.703V5.06149H284.133V34.5315H277.703ZM272.513 29.2215C275.333 29.2215 277.863 27.2715 277.863 23.7415C277.863 20.2115 275.333 18.2615 272.513 18.2615C269.773 18.2615 267.243 20.2515 267.243 23.7415C267.243 27.2315 269.773 29.2215 272.513 29.2215Z"
        fill="#4A6594" />
    <path
        d="M44.0325 20.8515L42.2225 22.6615C41.7625 23.1315 41.0025 23.1315 40.5325 22.6615L39.4225 21.5515L39.1725 21.3015C33.9325 16.0615 28.6925 10.8315 23.4525 5.59149C22.5225 4.66149 21.8025 4.67149 20.8725 5.60149L18.5825 7.89149L18.6025 7.91149L3.8625 22.6515C3.3925 23.1215 2.6325 23.1215 2.1625 22.6515L0.3525 20.8415C-0.1175 20.3715 -0.1175 19.6215 0.3525 19.1515L1.5525 17.9515L1.6225 17.8815C1.7325 17.7615 1.8425 17.6515 1.9625 17.5315C4.5625 14.9415 7.1525 12.3515 9.7525 9.75149L15.1125 4.39149C15.9225 3.58149 16.7325 2.78149 17.5425 1.97149C19.7225 -0.208507 22.9325 -0.628507 25.5425 0.951493C26.0025 1.24149 26.4325 1.62149 26.8325 2.01149C27.6525 2.81149 28.4625 3.62149 29.2725 4.43149C29.9625 5.12149 30.6525 5.82149 31.3425 6.51149C31.3625 6.53149 31.3925 6.54149 31.4525 6.59149V6.57149L44.0425 19.1615C44.5025 19.6215 44.5025 20.3815 44.0325 20.8515Z"
        fill="#FFD624" />
    <path
        d="M13.9427 31.1115C13.9527 31.3415 13.9427 31.5715 13.9427 31.7915C13.9427 32.0015 13.9427 32.2215 13.9427 32.4315C13.9327 32.8215 13.6427 33.1115 13.2727 33.1015C12.9127 33.1015 12.6227 32.8115 12.6227 32.4315C12.6127 31.9915 12.6127 31.5515 12.6227 31.1115C12.6327 30.7315 12.9227 30.4515 13.2827 30.4515C13.6427 30.4515 13.9327 30.7415 13.9427 31.1115Z"
        fill="#FFD624" />
    <path
        d="M13.9427 35.1015C13.9527 35.3215 13.9427 35.5415 13.9427 35.7615C13.9427 35.9815 13.9427 36.1915 13.9427 36.4015C13.9427 36.7915 13.6527 37.0815 13.2927 37.0815C12.9227 37.0815 12.6327 36.7915 12.6227 36.4015C12.6127 35.9615 12.6127 35.5315 12.6227 35.0915C12.6227 34.7115 12.9227 34.4115 13.2927 34.4215C13.6527 34.4415 13.9327 34.7215 13.9427 35.1015Z"
        fill="#FFD624" />
    <path
        d="M18.8525 25.3615C18.8625 24.9815 19.1525 24.7015 19.5125 24.7015C19.8725 24.7015 20.1725 24.9815 20.1725 25.3515C20.1825 25.8015 20.1825 26.2515 20.1725 26.6915C20.1725 27.0715 19.8725 27.3515 19.5125 27.3415C19.1525 27.3415 18.8625 27.0515 18.8525 26.6715C18.8525 26.4515 18.8525 26.2215 18.8525 25.9915C18.8525 25.7915 18.8525 25.5815 18.8525 25.3615Z"
        fill="#FFD624" />
    <path
        d="M18.8525 22.7015C18.8525 22.2715 18.8525 21.8315 18.8525 21.4015C18.8625 21.0115 19.1525 20.7215 19.5225 20.7215C19.8925 20.7215 20.1725 21.0115 20.1825 21.4015C20.1825 21.6115 20.1825 21.8315 20.1825 22.0415C20.1825 22.2615 20.1825 22.4815 20.1825 22.7015C20.1725 23.0815 19.8825 23.3615 19.5325 23.3715C19.1525 23.3815 18.8625 23.0915 18.8525 22.7015Z"
        fill="#FFD624" />
    <path
        d="M18.8525 29.3615C18.8625 28.9815 19.1525 28.6815 19.5225 28.6915C19.8825 28.6915 20.1725 28.9815 20.1825 29.3515C20.1825 29.5715 20.1825 29.7915 20.1825 30.0115C20.1825 30.2315 20.1825 30.4515 20.1825 30.6715C20.1725 31.0515 19.8825 31.3315 19.5225 31.3415C19.1525 31.3415 18.8625 31.0515 18.8525 30.6615C18.8525 30.2315 18.8525 29.7915 18.8525 29.3615Z"
        fill="#FFD624" />
    <path
        d="M18.8525 33.3315C18.8625 32.9515 19.1525 32.6715 19.5125 32.6715C19.8725 32.6715 20.1625 32.9515 20.1825 33.3215C20.1825 33.5515 20.1825 33.7815 20.1825 34.0015C20.1825 34.2115 20.1825 34.4315 20.1825 34.6415C20.1725 35.0315 19.8825 35.3215 19.5125 35.3215C19.1525 35.3215 18.8625 35.0315 18.8625 34.6515C18.8525 34.2115 18.8525 33.7615 18.8525 33.3315Z"
        fill="#FFD624" />
    <path
        d="M22.8324 33.9915C22.8324 34.2115 22.8424 34.4315 22.8324 34.6515C22.8224 35.0315 22.5324 35.3115 22.1724 35.3115C21.8124 35.3115 21.5124 35.0315 21.5124 34.6515C21.5024 34.2015 21.5024 33.7515 21.5124 33.3115C21.5224 32.9415 21.8224 32.6615 22.1824 32.6615C22.5324 32.6615 22.8224 32.9415 22.8324 33.3115C22.8424 33.5415 22.8324 33.7615 22.8324 33.9915Z"
        fill="#FFD624" />
    <path
        d="M22.8324 30.0115C22.8324 30.2215 22.8324 30.4415 22.8324 30.6515C22.8224 31.0415 22.5424 31.3315 22.1724 31.3415C21.8024 31.3415 21.5124 31.0515 21.5124 30.6615C21.5024 30.2315 21.5024 29.7915 21.5124 29.3615C21.5124 28.9715 21.8124 28.6815 22.1824 28.6915C22.5424 28.6915 22.8324 28.9815 22.8324 29.3515C22.8424 29.5715 22.8324 29.7915 22.8324 30.0115Z"
        fill="#FFD624" />
    <path
        d="M21.5124 25.3715C21.5224 24.9915 21.8024 24.7115 22.1624 24.7015C22.5324 24.7015 22.8324 24.9915 22.8324 25.3715C22.8424 25.8115 22.8324 26.2415 22.8324 26.6715C22.8324 27.0615 22.5324 27.3515 22.1724 27.3515C21.8024 27.3515 21.5224 27.0615 21.5124 26.6715C21.5124 26.4615 21.5124 26.2415 21.5124 26.0315C21.5024 25.8115 21.5024 25.5915 21.5124 25.3715Z"
        fill="#FFD624" />
    <path
        d="M22.8324 22.0615C22.8324 22.2715 22.8324 22.4915 22.8324 22.7015C22.8224 23.0915 22.5324 23.3815 22.1624 23.3815C21.8024 23.3815 21.5124 23.0915 21.5124 22.7115C21.5024 22.2715 21.5024 21.8315 21.5124 21.3815C21.5124 21.0115 21.8124 20.7215 22.1724 20.7215C22.5324 20.7215 22.8224 21.0015 22.8324 21.3715C22.8424 21.6115 22.8324 21.8315 22.8324 22.0615Z"
        fill="#FFD624" />
    <path
        d="M24.8121 35.3115C24.4521 35.3115 24.1621 35.0215 24.1621 34.6515C24.1621 34.4315 24.1621 34.2115 24.1621 33.9915C24.1621 33.7715 24.1621 33.5515 24.1621 33.3315C24.1721 32.9515 24.4621 32.6715 24.8121 32.6715C25.1721 32.6715 25.4721 32.9515 25.4821 33.3215C25.4921 33.7715 25.4921 34.2215 25.4821 34.6615C25.4721 35.0415 25.1821 35.3215 24.8121 35.3115Z"
        fill="#FFD624" />
    <path
        d="M24.1621 25.3715C24.1721 24.9915 24.4621 24.7115 24.8121 24.7015C25.1721 24.7015 25.4721 24.9815 25.4821 25.3515C25.4921 25.8015 25.4921 26.2515 25.4821 26.6915C25.4721 27.0715 25.1821 27.3515 24.8121 27.3415C24.4521 27.3415 24.1621 27.0515 24.1621 26.6815C24.1621 26.4615 24.1621 26.2415 24.1621 26.0215C24.1621 25.8115 24.1621 25.5915 24.1621 25.3715Z"
        fill="#FFD624" />
    <path
        d="M24.1621 22.7115C24.1621 22.4915 24.1621 22.2715 24.1621 22.0515C24.1621 21.8315 24.1621 21.6115 24.1621 21.3915C24.1721 21.0115 24.4621 20.7315 24.8121 20.7315C25.1721 20.7315 25.4721 21.0115 25.4821 21.3815C25.4921 21.8315 25.4921 22.2815 25.4821 22.7315C25.4721 23.1015 25.1721 23.3815 24.8121 23.3815C24.4621 23.3715 24.1721 23.0815 24.1621 22.7115Z"
        fill="#FFD624" />
    <path
        d="M25.4929 29.3715C25.4929 29.5815 25.4929 29.8015 25.4929 30.0115C25.4929 30.2315 25.4929 30.4515 25.4929 30.6715C25.4829 31.0515 25.2029 31.3315 24.8429 31.3415C24.4729 31.3415 24.1829 31.0515 24.1729 30.6615C24.1729 30.2215 24.1729 29.7915 24.1729 29.3615C24.1729 28.9715 24.4729 28.6815 24.8429 28.6815C25.1929 28.6815 25.4829 28.9815 25.4929 29.3715Z"
        fill="#FFD624" />
    <path
        d="M25.4923 37.4315V40.0015H24.1523V37.9915H22.8523V40.0015H21.5023V37.9915H20.2023V40.0015H18.8623V37.4315C18.8623 36.9015 19.1123 36.6415 19.6523 36.6415H24.7123C25.2323 36.6415 25.4923 36.8915 25.4923 37.4315Z"
        fill="#FFD624" />
    <path
        d="M31.7226 31.1215C31.7226 31.3515 31.7226 31.5815 31.7226 31.8015C31.7226 32.0115 31.7226 32.2115 31.7226 32.4215C31.7126 32.8115 31.4326 33.1015 31.0626 33.1015C30.6926 33.1015 30.4026 32.8115 30.3926 32.4215C30.3926 31.9815 30.3926 31.5515 30.3926 31.1215C30.4026 30.7315 30.6926 30.4415 31.0626 30.4415C31.4226 30.4515 31.7126 30.7415 31.7226 31.1215Z"
        fill="#FFD624" />
    <path
        d="M31.7226 35.0915C31.7326 35.5415 31.7326 35.9915 31.7226 36.4315C31.7126 36.8015 31.4126 37.0915 31.0526 37.0815C30.6926 37.0815 30.4026 36.7915 30.3926 36.4115C30.3926 36.1915 30.3926 35.9615 30.3926 35.7315C30.3926 35.5115 30.3926 35.3015 30.3926 35.0915C30.4026 34.7115 30.6926 34.4315 31.0526 34.4315C31.4126 34.4315 31.7126 34.7115 31.7226 35.0915Z"
        fill="#FFD624" />
    <path
        d="M37.7028 25.3815C37.6928 28.7815 37.7028 32.1715 37.6928 35.5715C37.6828 37.7515 36.1528 39.5515 34.0228 39.9415C33.8528 39.9715 33.6728 39.9915 33.5028 39.9915V28.2815C33.3228 27.9015 33.0228 27.7815 32.6128 27.7915C31.3628 27.8115 30.1228 27.8015 28.8828 27.8015H28.6528V40.0015H27.3028C27.3028 33.2815 27.3028 26.5615 27.3028 19.8515C27.3028 19.4415 27.1928 19.1315 26.8128 18.9615H17.5228C17.1428 19.1315 17.0328 19.4415 17.0328 19.8515C17.0428 26.5715 17.0428 33.2815 17.0428 40.0015H15.7028V27.8015H11.6128C11.0928 27.8015 10.8428 28.0615 10.8428 28.5715V39.9815C8.65281 39.8215 7.04281 38.3515 6.68281 36.1615C6.64281 35.9015 6.64281 35.6315 6.64281 35.3715C6.64281 32.0515 6.64281 28.7215 6.63281 25.3915C6.63281 24.8615 6.80281 24.4615 7.17281 24.0915C11.8228 19.4515 16.4628 14.8115 21.1128 10.1615C21.8528 9.43149 22.4728 9.42149 23.2028 10.1615C27.8528 14.8015 32.4928 19.4515 37.1428 24.0815C37.5228 24.4515 37.7028 24.8515 37.7028 25.3815Z"
        fill="#FFD624" />
</svg>